<?xml version="1.0" encoding="UTF-8" standalone="no"?>
<!DOCTYPE svg PUBLIC "-//W3C//DTD SVG 1.1//EN" "http://www.w3.org/Graphics/SVG/1.1/DTD/svg11.dtd">
<svg width="100%" height="100%" viewBox="0 0 1000 1000" version="1.1" xmlns="http://www.w3.org/2000/svg" xmlns:xlink="http://www.w3.org/1999/xlink" xml:space="preserve" xmlns:serif="http://www.serif.com/" style="fill-rule:evenodd;clip-rule:evenodd;stroke-linecap:round;stroke-linejoin:round;stroke-miterlimit:1.5;">
    <g transform="matrix(1,0,0,1,24.4621,9.56852)">
        <path d="M134.798,170.692C109.979,167.464 88.276,156.927 84.453,122.905C80.758,90.023 99.991,52.447 156.503,34.908C208.468,18.781 287.006,72.906 203.619,156.292" style="fill:none;stroke-width:42.13px;"/>
    </g>
    <g transform="matrix(-1,0,0,1,973.419,13.9607)">
        <path d="M134.798,170.692C109.979,167.464 88.276,156.927 84.453,122.905C80.758,90.023 99.991,52.447 156.503,34.908C208.468,18.781 287.006,72.906 203.619,156.292" style="fill:none;stroke-width:42.13px;"/>
    </g>
    <g transform="matrix(0.877836,0,0,1.13503,47.6035,-42.874)">
        <path d="M129.959,205.009C191.015,400.386 99.623,402.816 79.762,422.051" style="fill:none;stroke-width:41.53px;"/>
    </g>
    <g transform="matrix(-0.877836,0,0,1.13503,950.277,-38.4819)">
        <path d="M129.959,205.009C191.015,400.386 99.623,402.816 79.762,422.051" style="fill:none;stroke-width:41.53px;"/>
    </g>
    <g transform="matrix(1,0,0,1,24.4621,9.56852)">
        <path d="M203.969,157.615C240.748,227.227 283.317,265.977 329.857,268.967" style="fill:none;stroke-width:42.13px;"/>
    </g>
    <g transform="matrix(-1,0,0,1,973.419,13.9607)">
        <path d="M203.969,157.615C240.748,227.227 283.317,265.977 329.857,268.967" style="fill:none;stroke-width:42.13px;"/>
    </g>
    <g transform="matrix(1,0,0,1,23.8694,9.51861)">
        <path d="M478.331,921.332C478.232,920.245 477.059,907.342 483.122,908.555C491.913,910.313 483.393,913.246 479.928,921.332C480.409,918.444 479.447,915.436 479.928,912.548C481.009,906.065 482.263,919.869 482.324,920.534C480.676,912.845 480.999,907.938 487.914,912.548C489.857,913.843 478.337,934.031 479.928,913.346" style="fill:none;stroke-width:42.13px;"/>
    </g>
    <g transform="matrix(1,0,0,1,-8.54793,2.78059)">
        <path d="M226.778,681.758C204.784,659.764 197.457,402.369 324.205,425.414C388.412,437.088 426.204,530.263 392.883,614.677C343.194,740.555 243.009,755.453 229.174,679.362C226.156,662.763 224.272,558.054 238.757,533.222C253.725,507.563 269.061,444.566 326.601,463.746C350.194,471.61 381.612,469.728 385.696,559.575C390.059,655.568 252.413,776.839 246.743,632.246C239.466,446.693 336.574,479.063 355.35,524.438C399.013,629.957 268.641,743.561 256.326,615.476C241.807,464.485 334.97,497.8 347.364,536.417C377.784,631.197 262.542,699.413 256.09,561.382C254.67,530.985 252.958,575.095 253.93,573.151" style="fill:none;stroke-width:42.13px;"/>
    </g>
    <g transform="matrix(-1,0,0,1,1006.43,7.17278)">
        <path d="M226.778,681.758C204.784,659.764 197.457,402.369 324.205,425.414C388.412,437.088 426.204,530.263 392.883,614.677C343.194,740.555 243.009,755.453 229.174,679.362C226.156,662.763 224.272,558.054 238.757,533.222C253.725,507.563 269.061,444.566 326.601,463.746C350.194,471.61 381.612,469.728 385.696,559.575C390.059,655.568 252.413,776.839 246.743,632.246C239.466,446.693 336.574,479.063 355.35,524.438C399.013,629.957 268.641,743.561 256.326,615.476C241.807,464.485 334.97,497.8 347.364,536.417C377.784,631.197 262.542,699.413 256.09,561.382C254.67,530.985 252.958,575.095 253.93,573.151" style="fill:none;stroke-width:42.13px;"/>
    </g>
    <g transform="matrix(0.977442,-0.211204,0.211204,0.977442,-186.9,76.9234)">
        <path d="M156.297,936.006C150.703,933.647 129.017,924.499 113.38,873.417C87.517,788.931 114.477,714.616 118.053,700.824" style="fill:none;stroke-width:42.13px;"/>
    </g>
    <g transform="matrix(-0.977442,-0.211204,-0.211204,0.977442,1184.78,81.3155)">
        <path d="M156.297,936.006C150.703,933.647 129.017,924.499 113.38,873.417C87.517,788.931 114.477,714.616 118.053,700.824" style="fill:none;stroke-width:42.13px;"/>
    </g>
    <g transform="matrix(1,0,0,1,23.8694,9.51861)">
        <path d="M412.436,761.042C434.44,727.923 441.894,690.65 443.193,684.154" style="fill:none;stroke-width:42.13px;"/>
    </g>
    <g transform="matrix(1,0,0,1,23.8694,9.51861)">
        <path d="M500.928,681.783C510.979,722.909 534.189,756.564 538.224,762.415" style="fill:none;stroke-width:42.13px;"/>
    </g>
    <g transform="matrix(1,0,0,1,23.8694,9.51861)">
        <path d="M225.749,353.542C246.626,348.648 250.796,344.8 273.595,340.24" style="fill:none;stroke-width:42.13px;"/>
    </g>
    <g transform="matrix(1,0,0,1,23.8694,9.51861)">
        <path d="M689.955,341.563C705.014,343.714 712.411,343.692 727.519,345.581" style="fill:none;stroke-width:42.13px;"/>
    </g>
</svg>
