<?xml version="1.0" encoding="UTF-8" standalone="no"?>
<!DOCTYPE svg PUBLIC "-//W3C//DTD SVG 1.1//EN" "http://www.w3.org/Graphics/SVG/1.1/DTD/svg11.dtd">
<svg width="100%" height="100%" viewBox="0 0 1000 1000" version="1.1" xmlns="http://www.w3.org/2000/svg" xmlns:xlink="http://www.w3.org/1999/xlink" xml:space="preserve" xmlns:serif="http://www.serif.com/" style="fill-rule:evenodd;clip-rule:evenodd;stroke-linecap:round;stroke-linejoin:round;stroke-miterlimit:1.5;">
    <g transform="matrix(1.14803,0.0891927,-0.0472586,0.608283,-605.114,145.106)">
        <path d="M648.947,481.486C563.058,412.775 617.754,294.841 666.627,257.534C712.038,222.872 800.954,205.419 848.634,279.105C878.985,326.011 909.834,479.392 789.653,508.006C690.086,531.713 652.21,483.932 648.947,481.486Z" style="fill:none;stroke-width:45.73px;"/>
    </g>
    <g transform="matrix(-1.14803,0.0891927,0.0472586,0.608283,1604.1,155.317)">
        <path d="M648.947,481.486C563.058,412.775 617.754,294.841 666.627,257.534C712.038,222.872 800.954,205.419 848.634,279.105C878.985,326.011 909.834,479.392 789.653,508.006C690.086,531.713 652.21,483.932 648.947,481.486Z" style="fill:none;stroke-width:45.73px;"/>
    </g>
    <g transform="matrix(0.546195,0.00481366,-0.013228,1.50095,-154.281,-158.805)">
        <path d="M751.052,443.685C711.378,451.646 669.083,418.244 687.255,375.403C705.706,331.902 762.525,338.716 779.179,353.234C809.547,379.709 802.113,433.438 751.052,443.685Z" style="fill:none;stroke-width:37.3px;"/>
    </g>
    <g transform="matrix(-0.546195,0.00481366,0.013228,1.50095,1153.27,-148.594)">
        <path d="M751.052,443.685C711.378,451.646 669.083,418.244 687.255,375.403C705.706,331.902 762.525,338.716 779.179,353.234C809.547,379.709 802.113,433.438 751.052,443.685Z" style="fill:none;stroke-width:37.3px;"/>
    </g>
    <g transform="matrix(0.997159,0.0753296,-0.0607416,0.804053,50.3873,-30.2503)">
        <path d="M923.721,182.095C904.624,56.997 738.86,14.646 711.755,25.488C691.153,33.729 749.018,39.969 729.881,135.655C713.45,119.509 713.611,119.435 613.229,71.634C540.218,36.867 478.846,38.357 438.759,36.812C481.012,67.797 493.414,142.209 495.105,152.353C381.75,78.974 310.426,73.535 164.246,56.668C224.431,89.496 261.751,148.212 262.265,148.82C160.69,101.939 12.478,144.639 -8.323,150.632C61.761,173.644 69.509,226.767 23.24,279.684" style="fill:none;stroke-width:46.39px;"/>
    </g>
    <g transform="matrix(0.992501,0.122237,-0.122237,0.992501,36.9467,-99.3738)">
        <path d="M507.764,578.999C509.069,578.702 613.55,623.617 659.374,671.524C731.235,746.651 786.566,857.315 795.316,874.813C728.507,853.935 732.153,845.86 665.61,823.679C572.58,792.669 572.173,796.516 478.534,766.309" style="fill:none;stroke-width:42.13px;"/>
    </g>
    <g transform="matrix(0.260025,0.611036,0.456817,-0.194398,-58.9242,580.763)">
        <path d="M507.764,578.999C509.069,578.702 613.55,623.617 659.374,671.524C731.235,746.651 786.566,857.315 795.316,874.813C728.507,853.935 732.153,845.86 665.61,823.679C572.58,792.669 572.173,796.516 478.534,766.309" style="fill:none;stroke-width:71.87px;"/>
    </g>
    <g transform="matrix(0.992501,0.122237,-0.122237,0.992501,36.9467,-99.3738)">
        <path d="M471.484,651.324C472.795,653.899 475.796,651.443 494.594,679.087" style="fill:none;stroke-width:42.13px;"/>
    </g>
    <g transform="matrix(0.992501,0.122237,-0.122237,0.992501,36.9467,-99.3738)">
        <path d="M542.959,650.713C556.048,664.924 554.689,665.529 563.642,682.539" style="fill:none;stroke-width:42.13px;"/>
    </g>
    <g transform="matrix(0.965772,0.259392,-0.259392,0.965772,260.766,-23.9937)">
        <path d="M64.07,868.488C74.621,891.799 66.631,931.753 65.553,937.139C106.791,920.816 108.521,923.257 139.979,891.799C147.725,942.92 140.474,947.687 157.944,957.671C168.243,963.555 177.069,954.878 201.574,932.006" style="fill:none;stroke-width:42.13px;"/>
    </g>
    <g transform="matrix(-0.941706,0.336438,0.336438,0.941706,675.752,-7.26321)">
        <path d="M64.07,868.488C74.621,891.799 66.631,931.753 65.553,937.139C106.791,920.816 108.521,923.257 139.979,891.799C147.725,942.92 140.474,947.687 157.944,957.671C168.243,963.555 177.069,954.878 201.574,932.006" style="fill:none;stroke-width:42.13px;"/>
    </g>
</svg>
