<?xml version="1.0" encoding="UTF-8" standalone="no"?>
<!DOCTYPE svg PUBLIC "-//W3C//DTD SVG 1.1//EN" "http://www.w3.org/Graphics/SVG/1.1/DTD/svg11.dtd">
<svg width="100%" height="100%" viewBox="0 0 1000 1000" version="1.1" xmlns="http://www.w3.org/2000/svg" xmlns:xlink="http://www.w3.org/1999/xlink" xml:space="preserve" xmlns:serif="http://www.serif.com/" style="fill-rule:evenodd;clip-rule:evenodd;stroke-linecap:round;stroke-linejoin:round;stroke-miterlimit:1.5;">
    <g transform="matrix(-0.96928,0.0113304,0.00862605,0.58855,1000.61,-25.4701)">
        <path d="M648.947,481.486C565.704,402.031 617.754,294.841 666.627,257.534C712.038,222.872 800.954,205.419 848.634,279.105C878.985,326.011 938.233,414.803 830.751,477.231C734.846,532.935 667.032,498.747 648.947,481.486Z" style="fill:none;stroke-width:52.61px;"/>
    </g>
    <g transform="matrix(0.96928,0.0113304,-0.00862605,0.58855,-5.0134,3.66382)">
        <path d="M648.947,481.486C565.704,402.031 617.754,294.841 666.627,257.534C712.038,222.872 800.954,205.419 848.634,279.105C878.985,326.011 938.233,414.803 830.751,477.231C734.846,532.935 667.032,498.747 648.947,481.486Z" style="fill:none;stroke-width:52.61px;"/>
    </g>
    <g transform="matrix(-0.788221,0,0,0.720187,863.255,-51.6569)">
        <path d="M751.052,443.685C711.378,451.646 669.083,418.244 687.255,375.403C705.706,331.902 762.525,338.716 779.179,353.234C809.547,379.709 802.113,433.438 751.052,443.685Z" style="fill:none;stroke-width:55.81px;"/>
    </g>
    <g transform="matrix(0.788221,0,0,0.720187,132.338,-22.523)">
        <path d="M751.052,443.685C711.378,451.646 669.083,418.244 687.255,375.403C705.706,331.902 762.525,338.716 779.179,353.234C809.547,379.709 802.113,433.438 751.052,443.685Z" style="fill:none;stroke-width:55.81px;"/>
    </g>
    <g transform="matrix(-0.773856,0.0865182,-0.0516342,-0.461839,989.529,1091.06)">
        <path d="M181.35,719.051L181.408,718.993" style="fill:none;stroke-width:65.71px;"/>
    </g>
    <g transform="matrix(-0.773856,0.0865182,-0.0516342,-0.461839,989.529,1091.06)">
        <path d="M180.371,716.585C213.481,715.475 366.307,805.053 665.145,732.92C778.522,705.553 777.257,702.28 784.919,702.28" style="fill:none;stroke-width:65.71px;"/>
    </g>
    <g transform="matrix(-0.773856,0.0865182,-0.0516342,-0.461839,989.529,1091.06)">
        <path d="M179.355,716.308C166.444,729.219 348.284,911.054 420.593,928.268C484.825,943.558 597.012,959.065 784.684,705.709" style="fill:none;stroke-width:65.71px;"/>
    </g>
    <g transform="matrix(1,0,0,1,-54.3185,31.5354)">
        <path d="M337.586,488.215C297.504,493.518 251.891,415.714 347.126,396.668C395.245,387.044 431.587,381.078 457.351,311.148" style="fill:none;stroke-width:42.13px;"/>
    </g>
    <g transform="matrix(-1,0,0,1,1030.81,37.2368)">
        <path d="M337.586,488.215C297.504,493.518 251.891,415.714 347.126,396.668C395.245,387.044 431.587,381.078 457.351,311.148" style="fill:none;stroke-width:42.13px;"/>
    </g>
    <g transform="matrix(1,0,0,1,-54.3185,31.5354)">
        <path d="M383.598,457.333C382.245,454.351 451.199,442.58 492.205,457.957" style="fill:none;stroke-width:42.13px;"/>
    </g>
    <g transform="matrix(-1,0,0,1,1030.81,37.2368)">
        <path d="M383.598,457.333C382.245,454.351 451.199,442.58 492.205,457.957" style="fill:none;stroke-width:42.13px;"/>
    </g>
    <g transform="matrix(1.80152,0.143024,-0.700315,1.45372,-781.685,-581.863)">
        <path d="M646.773,393.754C662.16,378.828 697.465,366.659 734.3,360.562C761.785,356.012 790.122,354.842 811.674,358.43" style="fill:none;stroke-width:30.72px;"/>
    </g>
    <g transform="matrix(1.78047,0.701851,-0.884499,1.17849,-201.889,-870.857)">
        <path d="M646.773,393.754C662.16,378.828 697.465,366.659 734.3,360.562C761.785,356.012 790.122,354.842 811.674,358.43" style="fill:none;stroke-width:28.61px;"/>
    </g>
    <g transform="matrix(-0.486253,0.0543638,-0.0668121,-0.597597,917.018,1197.51)">
        <path d="M340.005,749.181C350.562,831.803 347.718,837.385 354.165,834.806" style="fill:none;stroke-width:76.86px;"/>
    </g>
    <g transform="matrix(-0.773856,0.0865182,-0.0516342,-0.461839,1000.45,1077.29)">
        <path d="M434.407,754.565C433.086,773.058 450.624,847.674 453.547,894.435" style="fill:none;stroke-width:65.71px;"/>
    </g>
    <g transform="matrix(-0.773856,0.0865182,-0.0516342,-0.461839,1000.45,1077.29)">
        <path d="M538.942,746.467C559.342,858.669 555.814,872.527 558.818,863.517" style="fill:none;stroke-width:65.71px;"/>
    </g>
    <g transform="matrix(-0.773856,0.0865182,-0.0516342,-0.461839,1000.45,1077.29)">
        <path d="M642.257,730.432C639.074,737.668 662.852,808.924 664.555,813.182" style="fill:none;stroke-width:65.71px;"/>
    </g>
    <g transform="matrix(0.99057,0.137011,-0.137011,0.99057,55.4677,-60.6563)">
        <path d="M397.487,538.25C422.155,608.141 352.877,681.248 253.054,716.892C170.567,746.346 130.853,823.887 194.418,863.296C229.713,885.178 305.033,853.768 376.668,761.667C415.807,711.344 453.118,635.604 397.487,538.25Z" style="fill:none;stroke-width:42.13px;"/>
    </g>
    <path d="M862.145,542.051C875.947,490.786 887.293,498.349 903.955,481.237" style="fill:none;stroke-width:42.13px;"/>
    <path d="M57.397,437.26C94.889,470.031 81.615,477.297 84.865,526.848" style="fill:none;stroke-width:42.13px;"/>
    <g transform="matrix(0.661285,0,0,0.628501,-36.8949,19.2869)">
        <path d="M477.838,355.386L476.221,354.61" style="fill:none;stroke-width:65.31px;"/>
    </g>
    <g transform="matrix(-0.661285,0,0,0.628501,1032.49,48.4208)">
        <path d="M477.838,355.386L476.221,354.61" style="fill:none;stroke-width:65.31px;"/>
    </g>
    <g transform="matrix(1,0,0,1,-39.441,36.2509)">
        <path d="M582.854,914.656C585.375,903.064 617.856,873.129 661.208,858.668C700.347,845.612 706.711,845.648 760.471,850.873" style="fill:none;stroke-width:42.13px;"/>
    </g>
    <path d="M593.829,533.286C589.385,537.789 560.206,578.563 571.079,610.25C580.587,637.958 621.156,635.378 632.345,610.783C650.602,570.649 596.196,536.766 593.829,533.286Z" style="fill:none;stroke-width:42.13px;"/>
</svg>
