<?xml version="1.0" encoding="UTF-8" standalone="no"?>
<!DOCTYPE svg PUBLIC "-//W3C//DTD SVG 1.1//EN" "http://www.w3.org/Graphics/SVG/1.1/DTD/svg11.dtd">
<svg width="100%" height="100%" viewBox="0 0 1000 1000" version="1.1" xmlns="http://www.w3.org/2000/svg" xmlns:xlink="http://www.w3.org/1999/xlink" xml:space="preserve" xmlns:serif="http://www.serif.com/" style="fill-rule:evenodd;clip-rule:evenodd;stroke-linecap:round;stroke-linejoin:round;stroke-miterlimit:1.5;">
    <g transform="matrix(-0.999983,0.00581142,-0.00632526,-1.0884,1014.67,1240.72)">
        <path d="M519.023,613.721C448.675,659.882 381.207,578.524 446.827,534.015C534.865,474.302 638.464,546.94 619.961,597.606C610.64,623.13 585.232,642.028 519.023,613.721Z" style="fill:none;stroke-width:40.31px;"/>
    </g>
    <g transform="matrix(1,0,0,1,-1.91768,22.7635)">
        <path d="M490.693,677.91C491.033,687.759 494.144,754.878 439.512,774.389C384.194,794.146 362.032,728.244 358.073,721.911" style="fill:none;stroke-width:42.13px;"/>
    </g>
    <g transform="matrix(0.580745,0.137863,-0.132044,0.556232,479.834,182.879)">
        <path d="M662.853,521.174C747.967,467.417 861.209,422.897 954.583,460.574" style="fill:none;stroke-width:72.1px;"/>
    </g>
    <g transform="matrix(-0.567316,0.14045,0.113154,0.457057,512.314,236.685)">
        <path d="M662.853,521.174C747.967,467.417 861.209,422.897 954.583,460.574" style="fill:none;stroke-width:79.39px;"/>
    </g>
    <g transform="matrix(0.609116,0.462181,-0.465664,0.613706,590.884,14.6786)">
        <path d="M662.853,521.174C747.967,467.417 861.209,422.897 954.583,460.574" style="fill:none;stroke-width:54.9px;"/>
    </g>
    <g transform="matrix(-0.604644,0.468016,0.471543,0.6092,400.359,22.9955)">
        <path d="M662.853,521.174C747.967,467.417 861.209,422.897 954.583,460.574" style="fill:none;stroke-width:54.9px;"/>
    </g>
    <g transform="matrix(0.2442,0.50009,-0.652891,0.318815,926.693,241.643)">
        <path d="M662.853,521.174C747.967,467.417 861.209,422.897 954.583,460.574" style="fill:none;stroke-width:65.11px;"/>
    </g>
    <g transform="matrix(-0.252109,0.449395,0.40992,0.229963,188.802,322)">
        <path d="M662.853,521.174C747.967,467.417 861.209,422.897 954.583,460.574" style="fill:none;stroke-width:85.44px;"/>
    </g>
    <g transform="matrix(0.86389,0,0,1,56.069,16.5086)">
        <path d="M413.836,806.349C420.515,873.154 442.022,944.215 482.242,953.108C551.97,968.525 584.879,899.458 591.737,816.072" style="fill:none;stroke-width:45.09px;"/>
    </g>
    <g transform="matrix(-1,0,0,1,979.057,24.081)">
        <path d="M490.693,677.91C491.033,687.759 493.883,770.333 439.252,789.844C383.933,809.601 346.729,741.233 342.771,734.9" style="fill:none;stroke-width:42.13px;"/>
    </g>
    <g transform="matrix(1.36388,0,0,0.870573,-194.76,127.646)">
        <path d="M497.847,777.38C499.183,786.929 506.403,840.612 501.671,887.933" style="fill:none;stroke-width:36.83px;"/>
    </g>
    <g transform="matrix(0.993428,-0.114455,0.114455,0.993428,442.868,98.8298)">
        <path d="M123.513,367.285C129.646,343.967 196.929,216.144 341.553,293.417C376.184,311.921 371.743,321.235 358.635,358.49C328.937,442.896 254.425,440.235 243.13,439.832C150.457,436.522 127.602,376.371 123.513,367.285Z" style="fill:none;stroke-width:42.13px;"/>
    </g>
    <g transform="matrix(-0.993428,-0.114455,-0.114455,0.993428,550.411,94.2528)">
        <path d="M123.513,367.285C129.646,343.967 196.929,216.144 341.553,293.417C376.184,311.921 371.743,321.235 358.635,358.49C328.937,442.896 254.425,440.235 243.13,439.832C150.457,436.522 127.602,376.371 123.513,367.285Z" style="fill:none;stroke-width:42.13px;"/>
    </g>
    <g transform="matrix(0.989024,-0.147752,0.147752,0.989024,2.91777,139.084)">
        <path d="M694.887,93.647C689.196,90.016 774.007,23.826 954.366,38.251C880.483,158.118 943.912,253.462 942.458,259.279" style="fill:none;stroke-width:42.13px;"/>
    </g>
    <g transform="matrix(-0.990723,-0.135899,-0.135899,0.990723,1001.97,128.393)">
        <path d="M694.887,93.647C689.196,90.016 774.007,23.826 954.366,38.251C880.483,158.118 943.912,253.462 942.458,259.279" style="fill:none;stroke-width:42.13px;"/>
    </g>
    <g transform="matrix(0.408966,-0.0980923,0.119199,0.496962,474.354,184.427)">
        <path d="M694.887,93.647C689.196,90.016 782.121,42.982 954.366,38.251C883.295,206.8 928.296,271.263 926.842,277.079" style="fill:none;stroke-width:90.03px;"/>
    </g>
    <g transform="matrix(-0.410111,-0.0931881,-0.113239,0.498354,531.115,179.379)">
        <path d="M694.887,93.647C689.196,90.016 782.121,42.982 954.366,38.251C883.295,206.8 928.296,271.263 926.842,277.079" style="fill:none;stroke-width:90.03px;"/>
    </g>
    <g transform="matrix(0.733225,0.00229469,-0.00369773,1.18154,239.306,60.6964)">
        <path d="M671.489,355.135C657.093,334.852 661.43,318.318 664.479,308.872" style="fill:none;stroke-width:42.85px;"/>
    </g>
    <g transform="matrix(-0.733225,0.00229469,0.00369773,1.18154,753.973,56.1194)">
        <path d="M671.489,355.135C657.093,334.852 661.43,318.318 664.479,308.872" style="fill:none;stroke-width:42.85px;"/>
    </g>
</svg>
