<?xml version="1.0" encoding="UTF-8" standalone="no"?>
<!DOCTYPE svg PUBLIC "-//W3C//DTD SVG 1.1//EN" "http://www.w3.org/Graphics/SVG/1.1/DTD/svg11.dtd">
<svg width="100%" height="100%" viewBox="0 0 1000 1000" version="1.1" xmlns="http://www.w3.org/2000/svg" xmlns:xlink="http://www.w3.org/1999/xlink" xml:space="preserve" xmlns:serif="http://www.serif.com/" style="fill-rule:evenodd;clip-rule:evenodd;stroke-linecap:round;stroke-linejoin:round;stroke-miterlimit:1.5;">
    <g transform="matrix(0.991927,0,0,0.861965,-6.66895,115.856)">
        <path d="M254.233,362.082C229.23,320.054 286.7,257.7 319.373,330.884C347.793,394.54 278.928,508.363 199.389,425.777C181.76,407.473 171.905,376.816 166.125,333.929C159.323,283.457 184.541,239.084 224.202,211.1C268.007,180.194 333.408,196.921 372.71,243.566C461.747,349.237 414.332,625.828 217.183,556.877C99.207,515.615 42.841,363.939 70.223,248.226C91.421,158.646 242.245,-3.371 414.978,140.727" style="fill:none;stroke-width:45.34px;"/>
    </g>
    <g transform="matrix(-0.991927,0,0,0.861965,1016.6,74.607)">
        <path d="M254.233,362.082C229.23,320.054 286.7,257.7 319.373,330.884C347.793,394.54 278.928,508.363 199.389,425.777C181.76,407.473 171.905,376.816 166.125,333.929C159.323,283.457 184.541,239.084 224.202,211.1C268.007,180.194 333.408,196.921 372.71,243.566C461.747,349.237 414.332,625.828 217.183,556.877C99.207,515.615 42.841,363.939 70.223,248.226C91.421,158.646 242.245,-3.371 414.978,140.727" style="fill:none;stroke-width:45.34px;"/>
    </g>
    <g transform="matrix(0.999856,-0.0169686,0.0169686,0.999856,4.25208,63.6988)">
        <path d="M384.552,644.998C393.376,587.589 435.732,557.766 502.233,555.424C556.03,553.529 617.306,570.814 640.708,647.596" style="fill:none;stroke-width:42.13px;"/>
    </g>
    <g transform="matrix(0.999856,-0.0169686,0.0169686,0.999856,4.25208,63.6988)">
        <path d="M457.021,639.742C456.261,639.67 455.501,639.598 454.74,639.526" style="fill:none;stroke-width:42.13px;"/>
    </g>
    <g transform="matrix(0.999856,-0.0169686,0.0169686,0.999856,4.25208,63.6988)">
        <path d="M540.922,637.639L537.853,639.526" style="fill:none;stroke-width:42.13px;"/>
    </g>
    <g transform="matrix(0.999856,-0.0169686,0.0169686,0.999856,-12.6456,8.25952)">
        <path d="M308.93,899.84C311.977,890.709 414.983,783.101 512.97,780.747C581.657,779.097 625.656,821.878 639.765,860.169C641.055,863.672 715.996,992.915 476.438,922.225C396.364,898.597 346.997,895.874 308.93,899.84Z" style="fill:none;stroke-width:42.13px;"/>
    </g>
    <g transform="matrix(1,0,0,1,-26.1391,3.13084)">
        <path d="M76.004,73.621C128.957,43.68 165.151,59.423 223.615,72.415C277.304,84.346 355.199,34.156 403.661,58.387" style="fill:none;stroke-width:42.13px;"/>
    </g>
    <g transform="matrix(1,0,0,1,538.169,-3.81894)">
        <path d="M76.004,73.621C128.957,43.68 165.151,59.423 223.615,72.415C277.304,84.346 355.199,34.156 403.661,58.387" style="fill:none;stroke-width:42.13px;"/>
    </g>
</svg>
