<?xml version="1.0" encoding="UTF-8" standalone="no"?>
<!DOCTYPE svg PUBLIC "-//W3C//DTD SVG 1.1//EN" "http://www.w3.org/Graphics/SVG/1.1/DTD/svg11.dtd">
<svg width="100%" height="100%" viewBox="0 0 1000 1000" version="1.1" xmlns="http://www.w3.org/2000/svg" xmlns:xlink="http://www.w3.org/1999/xlink" xml:space="preserve" xmlns:serif="http://www.serif.com/" style="fill-rule:evenodd;clip-rule:evenodd;stroke-linecap:round;stroke-linejoin:round;stroke-miterlimit:1.5;">
    <g transform="matrix(1.86417,0.231271,-0.298103,2.40287,-1144.44,-3491.93)">
        <path d="M1161.91,1593.13C1158.28,1578.98 1157.93,1579.88 1156.16,1564.54" style="fill:none;stroke-width:19.44px;"/>
    </g>
    <g transform="matrix(1,0,0,1,-21.6209,15.9558)">
        <path d="M103.769,111.877C130.145,78.157 272.285,17.238 383.97,104.99C418.513,132.131 448.68,173.332 454.654,167.358" style="fill:none;stroke-width:42.13px;"/>
    </g>
    <g transform="matrix(1,0,0,1,-21.6209,15.9558)">
        <path d="M104.029,287.807C117.749,279.256 198.182,147.12 282.485,174.427C380.814,206.276 397.694,306.559 417.429,326.438C395.146,355.084 364.243,469.227 245.493,466.465C158.527,464.442 114.236,321.83 104.029,287.807Z" style="fill:none;stroke-width:42.13px;"/>
    </g>
    <g transform="matrix(-1.89882,0.0571624,0.0241498,2.79249,2614.46,-3909.88)">
        <path d="M1161.91,1593.13C1158.28,1578.98 1157.93,1579.88 1156.16,1564.54" style="fill:none;stroke-width:17.47px;"/>
    </g>
    <g transform="matrix(-0.999755,0.0221564,0.0221564,0.999755,1559.21,-933.525)">
        <path d="M702.57,1549.78C689.299,1646.78 739.518,1707.1 809.416,1745.95" style="fill:none;stroke-width:42.13px;"/>
    </g>
    <g transform="matrix(0.999755,0.0221564,-0.0221564,0.999755,-589.602,-934.227)">
        <path d="M702.57,1549.78C689.299,1646.78 739.518,1707.1 809.416,1745.95" style="fill:none;stroke-width:42.13px;"/>
    </g>
    <g transform="matrix(1.42271,0,0,1,-187.721,0)">
        <path d="M389.28,843.583C354.615,840.282 287.673,743.667 381.286,693.64C401.992,682.575 533.648,664.371 585.99,688.131C637.865,711.679 644.26,818.369 586.053,815.206" style="fill:none;stroke-width:34.27px;"/>
    </g>
    <path d="M407.059,779.344C416.353,844.4 428.927,889.665 458.419,918.863C476.284,936.55 490.826,946.282 537.623,944.1C588.288,941.737 604.729,909.47 603.077,880.402C601.431,851.449 566.867,816.062 564.252,763.778" style="fill:none;stroke-width:42.13px;"/>
    <g transform="matrix(1,0,0,1,-21.6209,15.9558)">
        <path d="M249.768,284.246C245.927,289.291 239.849,320.921 246.76,372.757" style="fill:none;stroke-width:42.13px;"/>
    </g>
    <g transform="matrix(-0.98341,0,0,1,998.266,15.9558)">
        <path d="M103.769,111.877C130.145,78.157 272.285,17.238 383.97,104.99C418.513,132.131 448.68,173.332 454.654,167.358" style="fill:none;stroke-width:42.49px;"/>
    </g>
    <g transform="matrix(-0.98341,0,0,1,998.266,15.9558)">
        <path d="M104.029,287.807C117.749,279.256 198.182,147.12 282.485,174.427C380.814,206.276 397.694,306.559 417.429,326.438C395.146,355.084 364.243,469.227 245.493,466.465C158.527,464.442 114.236,321.83 104.029,287.807Z" style="fill:none;stroke-width:42.49px;"/>
    </g>
    <g transform="matrix(-0.98341,0,0,1,998.266,15.9558)">
        <path d="M249.768,284.246C245.927,289.291 239.849,320.921 246.76,372.757" style="fill:none;stroke-width:42.49px;"/>
    </g>
    <path d="M521.459,877.938C487.722,827.724 492.367,798.866 488.748,760.27" style="fill:none;stroke-width:42.13px;"/>
</svg>
