<?xml version="1.0" encoding="UTF-8" standalone="no"?>
<!DOCTYPE svg PUBLIC "-//W3C//DTD SVG 1.1//EN" "http://www.w3.org/Graphics/SVG/1.1/DTD/svg11.dtd">
<svg width="100%" height="100%" viewBox="0 0 1000 1000" version="1.1" xmlns="http://www.w3.org/2000/svg" xmlns:xlink="http://www.w3.org/1999/xlink" xml:space="preserve" xmlns:serif="http://www.serif.com/" style="fill-rule:evenodd;clip-rule:evenodd;stroke-linecap:round;stroke-linejoin:round;stroke-miterlimit:1.5;">
    <g transform="matrix(-1.02255,0.0180277,0.00910009,0.936435,1047.96,-70.3814)">
        <path d="M648.947,481.486C565.704,402.031 617.754,294.841 666.627,257.534C712.038,222.872 800.954,205.419 848.634,279.105C878.985,326.011 938.233,414.803 830.751,477.231C734.846,532.935 667.032,498.747 648.947,481.486Z" style="fill:none;stroke-width:42.8px;"/>
    </g>
    <g transform="matrix(1.02255,0.0180277,-0.00910009,0.936435,-12.9214,-24.0267)">
        <path d="M648.947,481.486C565.704,402.031 617.754,294.841 666.627,257.534C712.038,222.872 800.954,205.419 848.634,279.105C878.985,326.011 938.233,414.803 830.751,477.231C734.846,532.935 667.032,498.747 648.947,481.486Z" style="fill:none;stroke-width:42.8px;"/>
    </g>
    <g transform="matrix(-0.831537,0,0,1.14588,903.063,-112.047)">
        <path d="M751.052,443.685C711.378,451.646 669.083,418.244 687.255,375.403C705.706,331.902 762.525,338.716 779.179,353.234C809.547,379.709 802.113,433.438 751.052,443.685Z" style="fill:none;stroke-width:42.09px;"/>
    </g>
    <g transform="matrix(0.831537,0,0,1.14588,131.978,-65.6922)">
        <path d="M751.052,443.685C711.378,451.646 669.083,418.244 687.255,375.403C705.706,331.902 762.525,338.716 779.179,353.234C809.547,379.709 802.113,433.438 751.052,443.685Z" style="fill:none;stroke-width:42.09px;"/>
    </g>
    <g transform="matrix(-1.03338,-0.250916,0.241467,-0.994465,800.639,1729.06)">
        <path d="M181.35,719.051L181.408,718.993" style="fill:none;stroke-width:40.38px;"/>
    </g>
    <g transform="matrix(-1.03338,-0.250916,0.241467,-0.994465,800.639,1729.06)">
        <path d="M180.371,716.585C213.481,715.475 366.307,805.053 665.145,732.92C778.522,705.553 777.257,702.28 784.919,702.28" style="fill:none;stroke-width:40.38px;"/>
    </g>
    <g transform="matrix(-1.03338,-0.250916,0.241467,-0.994465,800.639,1729.06)">
        <path d="M179.355,716.308C166.444,729.219 348.284,911.054 420.593,928.268C484.825,943.558 597.012,959.065 784.684,705.709" style="fill:none;stroke-width:40.38px;"/>
    </g>
    <g transform="matrix(1.46222,0.00560726,-0.00586697,1.52994,-229.866,-380.915)">
        <path d="M392.37,647.449C395.6,619.823 411.82,598.027 425.915,588.097C471.603,555.906 490.191,610.622 507.809,592.436C536.12,563.214 586.258,582.698 612.058,648.641" style="fill:none;stroke-width:28.16px;"/>
    </g>
    <g transform="matrix(1.74845,1.1463,-1.19689,1.82563,-503.045,-1407.16)">
        <path d="M646.773,393.754C662.16,378.828 697.465,366.659 734.3,360.562C761.785,356.012 790.122,354.842 811.674,358.43" style="fill:none;stroke-width:19.71px;"/>
    </g>
    <g transform="matrix(1.96088,0.725278,-0.757292,2.04743,-359.423,-1136.98)">
        <path d="M646.773,393.754C662.16,378.828 697.465,366.659 734.3,360.562C761.785,356.012 790.122,354.842 811.674,358.43" style="fill:none;stroke-width:19.71px;"/>
    </g>
    <g transform="matrix(-0.649326,-0.157663,0.312446,-1.28679,638.525,1911.18)">
        <path d="M340.005,749.181C350.562,831.803 347.718,837.385 354.165,834.806" style="fill:none;stroke-width:40.17px;"/>
    </g>
    <g transform="matrix(-1.03338,-0.250916,0.241467,-0.994465,823.554,1706.36)">
        <path d="M434.407,754.565C433.086,773.058 450.624,847.674 453.547,894.435" style="fill:none;stroke-width:40.38px;"/>
    </g>
    <g transform="matrix(-1.03338,-0.250916,0.241467,-0.994465,823.554,1706.36)">
        <path d="M538.942,746.467C559.342,858.669 555.814,872.527 558.818,863.517" style="fill:none;stroke-width:40.38px;"/>
    </g>
    <g transform="matrix(-1.03338,-0.250916,0.241467,-0.994465,823.554,1706.36)">
        <path d="M642.257,730.432C639.074,737.668 662.852,808.924 664.555,813.182" style="fill:none;stroke-width:40.38px;"/>
    </g>
    <g transform="matrix(0.697626,0,0,1,-46.5549,0.830918)">
        <path d="M477.838,355.386L476.221,354.61" style="fill:none;stroke-width:48.87px;"/>
    </g>
    <g transform="matrix(-0.697626,0,0,1,1081.6,47.1856)">
        <path d="M477.838,355.386L476.221,354.61" style="fill:none;stroke-width:48.87px;"/>
    </g>
    <g transform="matrix(1.30176,0,0,1.38772,-303.208,-84.6857)">
        <path d="M862.54,550.963C882.336,552.464 899.636,555.189 916.36,563.439C921.147,565.8 927.357,563.374 948.483,644.39" style="fill:none;stroke-width:31.32px;"/>
    </g>
    <g transform="matrix(-1.30176,0,0,1.38772,1303.86,-142.175)">
        <path d="M862.54,550.963C882.336,552.464 899.636,555.189 916.36,563.439C921.147,565.8 927.357,563.374 948.483,644.39" style="fill:none;stroke-width:31.32px;"/>
    </g>
    <path d="M351.558,925.478C447.099,906.279 480.344,939.524 488.17,947.351" style="fill:none;stroke-width:42.13px;"/>
    <g transform="matrix(0.324066,0,0,1,298.926,-335.931)">
        <path d="M351.558,925.478C447.099,906.279 480.344,939.524 488.17,947.351" style="fill:none;stroke-width:56.69px;"/>
    </g>
    <g transform="matrix(-0.324066,0,0,1,692.317,-333.868)">
        <path d="M351.558,925.478C447.099,906.279 480.344,939.524 488.17,947.351" style="fill:none;stroke-width:56.69px;"/>
    </g>
</svg>
