<?xml version="1.0" encoding="UTF-8" standalone="no"?>
<!DOCTYPE svg PUBLIC "-//W3C//DTD SVG 1.1//EN" "http://www.w3.org/Graphics/SVG/1.1/DTD/svg11.dtd">
<svg width="100%" height="100%" viewBox="0 0 1000 1000" version="1.1" xmlns="http://www.w3.org/2000/svg" xmlns:xlink="http://www.w3.org/1999/xlink" xml:space="preserve" xmlns:serif="http://www.serif.com/" style="fill-rule:evenodd;clip-rule:evenodd;stroke-linecap:round;stroke-linejoin:round;stroke-miterlimit:1.5;">
    <g transform="matrix(1.22934,0,0,0.654537,-20.53,356.397)">
        <path d="M241.203,841.387C210.199,827.277 139.086,413.878 179.059,174.039" style="fill:none;stroke-width:42.78px;"/>
    </g>
    <g transform="matrix(1.23968,0,0,1.14255,28.3612,290.912)">
        <path d="M138.609,155.759C156.112,104.081 263.334,90.158 357.789,89.236C454.919,88.288 591.777,96.607 620.239,172.324" style="fill:none;stroke-width:35.34px;"/>
    </g>
    <path d="M359.034,395.733C358.99,395.728 306.412,334.285 296.08,289.606C330.523,256.298 314.065,302.046 493.775,299.991C666.675,298.014 661.454,256.562 693.753,288.452C700.45,295.065 694.546,299.855 626.786,385.182" style="fill:none;stroke-width:42.13px;"/>
    <g transform="matrix(1.15348,0.163072,0,1,-69.9026,-74.2715)">
        <path d="M455.452,292.957C456.182,283.398 461.131,218.65 456.578,173.12" style="fill:none;stroke-width:36.38px;"/>
    </g>
    <g transform="matrix(1.15348,-0.565957,0,1,-6.01655,260.353)">
        <path d="M455.452,292.957C456.182,283.398 461.131,218.65 456.578,173.12" style="fill:none;stroke-width:48.35px;"/>
    </g>
    <g transform="matrix(1,0,0,1,-2.83389,-0.494114)">
        <path d="M401.702,175.91C404.105,161.494 398.899,124.212 397.982,84.76C413.135,84.4 412.637,79.834 586.792,68.949C586.792,134.108 602.213,162.492 583.071,158.238C549.061,150.68 410.469,158.376 401.702,175.91Z" style="fill:none;stroke-width:42.13px;"/>
    </g>
    <g transform="matrix(1,0,0,1,-3.3716,-19.067)">
        <path d="M608.264,102.374C659.405,82.21 784.865,81.611 792.343,85.691C795.496,87.41 796.491,87.953 817.456,122.895C828.435,141.193 829.102,140.644 829.547,142.427" style="fill:none;stroke-width:42.13px;"/>
    </g>
    <g transform="matrix(0.828687,0,0,0.72044,89.6127,56.5585)">
        <path d="M608.264,102.374C659.405,82.21 784.865,81.611 792.343,85.691C795.496,87.41 796.491,87.953 817.456,122.895C828.435,141.193 829.102,140.644 829.547,142.427" style="fill:none;stroke-width:54.27px;"/>
    </g>
    <path d="M826.365,121.877C821.581,122.815 806.283,125.815 777.462,158.238" style="fill:none;stroke-width:42.13px;"/>
    <g transform="matrix(1.22934,0,0,0.654537,30.568,368.591)">
        <path d="M198.763,823.923C236.671,849.15 292.172,856.792 330.127,862.104C353.375,865.357 396.071,865.103 419.665,862.564C469.14,857.242 540.745,845.875 552.034,828.741" style="fill:none;stroke-width:42.78px;"/>
    </g>
    <g transform="matrix(-1.22934,0,0,0.654537,1004.7,361.821)">
        <path d="M241.203,841.387C210.199,827.277 130.162,425.664 170.135,185.825" style="fill:none;stroke-width:42.78px;"/>
    </g>
</svg>
