<?xml version="1.0" encoding="UTF-8" standalone="no"?>
<!DOCTYPE svg PUBLIC "-//W3C//DTD SVG 1.1//EN" "http://www.w3.org/Graphics/SVG/1.1/DTD/svg11.dtd">
<svg width="100%" height="100%" viewBox="0 0 1000 1000" version="1.1" xmlns="http://www.w3.org/2000/svg" xmlns:xlink="http://www.w3.org/1999/xlink" xml:space="preserve" xmlns:serif="http://www.serif.com/" style="fill-rule:evenodd;clip-rule:evenodd;stroke-linecap:round;stroke-linejoin:round;stroke-miterlimit:1.5;">
    <g transform="matrix(-1,0,0,1,1456.02,-12.1099)">
        <path d="M648.947,481.486C563.058,412.775 617.754,294.841 666.627,257.534C712.038,222.872 800.954,205.419 848.634,279.105C878.985,326.011 909.834,479.392 789.653,508.006C690.086,531.713 652.21,483.932 648.947,481.486Z" style="fill:none;stroke-width:42.13px;"/>
    </g>
    <g transform="matrix(1,0,0,1,-440.096,-11.7878)">
        <path d="M648.947,481.486C563.058,412.775 617.754,294.841 666.627,257.534C712.038,222.872 800.954,205.419 848.634,279.105C878.985,326.011 909.834,479.392 789.653,508.006C690.086,531.713 652.21,483.932 648.947,481.486Z" style="fill:none;stroke-width:42.13px;"/>
    </g>
    <g transform="matrix(-1,0,0,1.02309,1451.35,-37.1842)">
        <path d="M751.052,443.685C711.378,451.646 669.083,418.244 687.255,375.403C705.706,331.902 762.525,338.716 779.179,353.234C809.547,379.709 802.113,433.438 751.052,443.685Z" style="fill:none;stroke-width:41.65px;"/>
    </g>
    <g transform="matrix(1,0,0,1.02309,-435.435,-36.862)">
        <path d="M751.052,443.685C711.378,451.646 669.083,418.244 687.255,375.403C705.706,331.902 762.525,338.716 779.179,353.234C809.547,379.709 802.113,433.438 751.052,443.685Z" style="fill:none;stroke-width:41.65px;"/>
    </g>
    <path d="M106.804,684.019C18.535,727.763 28.716,442.678 29.5,420.741C36.045,237.49 153.015,75.567 208.354,83.472" style="fill:none;stroke-width:42.13px;"/>
    <g transform="matrix(-1,0,0,1,990.142,-0.345998)">
        <path d="M106.804,684.019C18.535,727.763 28.716,442.678 29.5,420.741C36.045,237.49 153.015,75.567 208.354,83.472" style="fill:none;stroke-width:42.13px;"/>
    </g>
    <g transform="matrix(1,0,0,1,-16.8165,20.2568)">
        <path d="M480.043,609.496C424.612,645.297 381.207,578.524 446.827,534.015C534.865,474.302 649.709,550.316 631.207,600.983C621.886,626.507 584.281,637.059 554.609,606.068" style="fill:none;stroke-width:42.13px;"/>
    </g>
    <g transform="matrix(1,0,0,1,11.6862,-4.26868)">
        <path d="M490.693,677.91C491.033,687.759 493.883,770.333 439.252,789.844C383.933,809.601 355.518,764.136 351.56,757.802" style="fill:none;stroke-width:42.13px;"/>
    </g>
    <path d="M424.377,803.019C403.618,852.895 442.022,944.215 482.242,953.108C551.97,968.525 603.262,886.901 576.805,812.03" style="fill:none;stroke-width:42.13px;"/>
    <g transform="matrix(-1,0,0,1,992.661,-2.95118)">
        <path d="M490.693,677.91C491.033,687.759 493.883,770.333 439.252,789.844C383.933,809.601 355.518,764.136 351.56,757.802" style="fill:none;stroke-width:42.13px;"/>
    </g>
    <path d="M497.847,777.38C499.183,786.929 508.067,850.452 503.335,897.773" style="fill:none;stroke-width:42.13px;"/>
    <path d="M195.186,613.115L193.039,613.616" style="fill:none;stroke-width:42.13px;"/>
    <path d="M281.667,647.028L279.045,648.187" style="fill:none;stroke-width:42.13px;"/>
    <path d="M207.38,712.244C206.534,712.533 205.689,712.823 204.844,713.113" style="fill:none;stroke-width:42.13px;"/>
    <path d="M693.001,645.789C691.417,646.244 691.411,645.569 690.524,647.344" style="fill:none;stroke-width:42.13px;"/>
    <path d="M776.359,604.499C775.854,605.29 775.349,606.08 774.844,606.871" style="fill:none;stroke-width:42.13px;"/>
    <path d="M752.525,700.386L751.234,702.152" style="fill:none;stroke-width:42.13px;"/>
</svg>
