<?xml version="1.0" encoding="UTF-8" standalone="no"?>
<!DOCTYPE svg PUBLIC "-//W3C//DTD SVG 1.1//EN" "http://www.w3.org/Graphics/SVG/1.1/DTD/svg11.dtd">
<svg width="100%" height="100%" viewBox="0 0 1000 1000" version="1.1" xmlns="http://www.w3.org/2000/svg" xmlns:xlink="http://www.w3.org/1999/xlink" xml:space="preserve" xmlns:serif="http://www.serif.com/" style="fill-rule:evenodd;clip-rule:evenodd;stroke-linecap:round;stroke-linejoin:round;stroke-miterlimit:1.5;">
    <g transform="matrix(1,0,0,1,-20.8111,-6.74311)">
        <path d="M316.039,61.671C245.942,9.166 14.754,56.753 51.662,367.385C59.171,430.583 132.729,569.147 142.509,706.128C147.726,779.189 48.465,913.15 80.36,945.045C80.379,945.065 225.374,728.257 158.859,937.114C144.346,982.685 266.009,770.597 246.589,877.729C212.89,1063.64 278.189,884.126 336.625,894.459" style="fill:none;stroke-width:42.13px;"/>
    </g>
    <g transform="matrix(-1,0,0,1,1019.85,-1.13687e-13)">
        <path d="M316.039,61.671C245.942,9.166 14.754,56.753 51.662,367.385C59.171,430.583 132.729,569.147 142.509,706.128C147.726,779.189 48.465,913.15 80.36,945.045C80.379,945.065 225.374,728.257 158.859,937.114C144.346,982.685 266.009,770.597 246.589,877.729C212.89,1063.64 278.189,884.126 336.625,894.459" style="fill:none;stroke-width:42.13px;"/>
    </g>
    <g transform="matrix(1.22561,0,0,1.22561,-124.073,-187.816)">
        <path d="M444.302,510.851C474.794,501.746 479.695,502.794 490.875,501.396C518.829,497.902 546.476,502.633 576.009,513.205" style="fill:none;stroke-width:34.38px;"/>
    </g>
    <g transform="matrix(1.26029,0.226874,-0.17717,0.98418,-72.7246,-34.5083)">
        <path d="M267.409,318.994C283.857,306.132 289.991,247.663 343.778,244.687C389.2,242.174 382.456,283.128 421.166,286.884C395.756,314.961 392.004,355.329 340.743,353.291C282.818,350.987 303.033,315.431 267.409,318.994Z" style="fill:none;stroke-width:36.67px;"/>
    </g>
    <g transform="matrix(-1.26029,0.226874,0.17717,0.98418,1081.26,-26.5814)">
        <path d="M267.409,318.994C283.857,306.132 289.991,247.663 343.778,244.687C389.2,242.174 382.456,283.128 421.166,286.884C395.756,314.961 392.004,355.329 340.743,353.291C282.818,350.987 303.033,315.431 267.409,318.994Z" style="fill:none;stroke-width:36.67px;"/>
    </g>
    <g transform="matrix(0.98418,0.17717,-0.17717,0.98418,29.3142,-16.1395)">
        <path d="M337.597,301.911C337.712,301.845 337.403,301.655 338.522,300.536" style="fill:none;stroke-width:42.13px;"/>
    </g>
    <g transform="matrix(-0.98418,0.17717,0.17717,0.98418,979.224,-8.21262)">
        <path d="M337.597,301.911C337.712,301.845 337.403,301.655 338.522,300.536" style="fill:none;stroke-width:42.13px;"/>
    </g>
    <g transform="matrix(0.533068,0.0390407,-0.050831,0.637029,305.651,486.501)">
        <path d="M444.302,510.851C474.794,501.746 479.695,502.794 490.875,501.396C518.829,497.902 546.476,502.633 576.009,513.205" style="fill:none;stroke-width:71.75px;"/>
    </g>
    <g transform="matrix(0.506287,-0.0774015,0.044887,0.293608,243.986,658.625)">
        <path d="M444.302,510.851C474.794,501.746 479.695,502.794 490.875,501.396C518.829,497.902 546.476,502.633 576.009,513.205" style="fill:none;stroke-width:100.64px;"/>
    </g>
    <g transform="matrix(0.750632,-0.118572,0.0570503,0.361162,-2.56243,608.419)">
        <path d="M444.302,510.851C474.794,501.746 479.695,502.794 490.875,501.396C518.829,497.902 546.476,502.633 576.009,513.205" style="fill:none;stroke-width:70.66px;"/>
    </g>
    <g transform="matrix(0.182181,0.0767493,-0.0456405,0.108337,447.238,798.873)">
        <path d="M444.302,510.851C474.794,501.746 479.695,502.794 490.875,501.396C518.829,497.902 546.476,502.633 576.009,513.205" style="fill:none;stroke-width:259.07px;"/>
    </g>
    <g transform="matrix(0.999832,-0.0183049,0.0183049,0.999832,-14.7351,18.8945)">
        <path d="M444.302,510.851C474.794,501.746 479.695,502.794 490.875,501.396C518.829,497.902 546.476,502.633 576.009,513.205" style="fill:none;stroke-width:42.13px;"/>
    </g>
    <g transform="matrix(1,0,0,0.991738,0,3.8821)">
        <path d="M357.024,497.959C419.138,584.88 317.517,594.74 287.368,616.209C215.924,667.084 272.931,779.838 327.932,792.942C398.454,809.744 417.654,782.689 453.868,812.917C473.82,829.571 473.198,869.328 452.726,884.696C444.843,890.614 409.46,912.325 384.67,952.935C384.67,952.935 441.503,935.088 480.955,946.247C501.334,952.011 526.751,969.243 526.751,969.243C524.42,970.766 540.806,953.009 546.625,948.554C567.131,932.855 588.134,924.839 602.925,909.377C642.403,868.107 649.313,818.09 632.555,779.901C604.781,716.61 558.941,696.607 518.562,687.514C486.198,680.227 575.149,646.084 596.946,625.105C647.446,576.5 657.847,502.507 659.497,490.767" style="fill:none;stroke-width:42.31px;"/>
    </g>
    <g transform="matrix(0.998684,-0.0512896,0.0320853,0.624747,-140.692,375.385)">
        <path d="M444.302,510.851C474.794,501.746 479.695,502.794 490.875,501.396C518.829,497.902 546.476,502.633 576.009,513.205" style="fill:none;stroke-width:50.52px;"/>
    </g>
    <g transform="matrix(1,0,0,1,-1.85563,4.67842)">
        <path d="M235.421,229.109C232.793,224.378 227.115,205.127 226.004,200.13" style="fill:none;stroke-width:42.13px;"/>
    </g>
    <g transform="matrix(-1,0,0,1,1010.39,12.6053)">
        <path d="M235.421,229.109C232.793,224.378 227.115,205.127 226.004,200.13" style="fill:none;stroke-width:42.13px;"/>
    </g>
    <g transform="matrix(1,0,0,1,2.15927,-6.61277)">
        <path d="M311.597,230.63C312.128,224.811 316.925,208.827 318.657,200.943" style="fill:none;stroke-width:42.13px;"/>
    </g>
    <g transform="matrix(-1,0,0,1,1006.38,1.3141)">
        <path d="M311.597,230.63C312.128,224.811 316.925,208.827 318.657,200.943" style="fill:none;stroke-width:42.13px;"/>
    </g>
    <g transform="matrix(1,0,0,1,12.6362,-3.04997)">
        <path d="M378.438,251.434C383.763,240.636 383.833,241.264 390.178,231.014" style="fill:none;stroke-width:42.13px;"/>
    </g>
    <g transform="matrix(-1,0,0,1,995.902,4.8769)">
        <path d="M378.438,251.434C383.763,240.636 383.833,241.264 390.178,231.014" style="fill:none;stroke-width:42.13px;"/>
    </g>
    <g transform="matrix(0.899607,-0.00317386,0.0023142,0.655943,13.2338,264.799)">
        <path d="M444.302,510.851C474.794,501.746 479.695,502.794 490.875,501.396C518.829,497.902 546.476,502.633 576.009,513.205" style="fill:none;stroke-width:53.52px;"/>
    </g>
    <g transform="matrix(1.05185,0,0,1.12729,-32.8463,-72.269)">
        <path d="M687.473,567.759C685.837,570.747 698.486,613.055 726.833,651.563C757.38,693.063 807.169,731.808 800.952,731.792C752.176,731.672 718.259,725.203 707.487,719.613C683.7,707.268 651.349,675.318 622.092,658.42" style="fill:none;stroke-width:38.65px;"/>
    </g>
</svg>
