<?xml version="1.0" encoding="UTF-8" standalone="no"?>
<!DOCTYPE svg PUBLIC "-//W3C//DTD SVG 1.1//EN" "http://www.w3.org/Graphics/SVG/1.1/DTD/svg11.dtd">
<svg width="100%" height="100%" viewBox="0 0 1000 1000" version="1.1" xmlns="http://www.w3.org/2000/svg" xmlns:xlink="http://www.w3.org/1999/xlink" xml:space="preserve" xmlns:serif="http://www.serif.com/" style="fill-rule:evenodd;clip-rule:evenodd;stroke-linecap:round;stroke-linejoin:round;stroke-miterlimit:1.5;">
    <g transform="matrix(1.4986,-0.298665,0.265285,1.03821,-1608,-644.441)">
        <path d="M1036.65,1538.93C1036.28,1486.2 1082.19,1433.92 1145.61,1426.88C1188.52,1422.11 1224.96,1472.4 1220.39,1550.04" style="fill:none;stroke-width:31.15px;"/>
    </g>
    <g transform="matrix(-0.890191,0.356685,0.952494,1.06988,58.1491,-1514.18)">
        <path d="M1161.91,1593.13C1158.28,1578.98 1157.93,1579.88 1156.16,1564.54" style="fill:none;stroke-width:41.73px;"/>
    </g>
    <g transform="matrix(-1.11117,0.210998,0.279356,1.27306,1281.1,-1646.43)">
        <path d="M1161.91,1593.13C1158.28,1578.98 1157.93,1579.88 1156.16,1564.54" style="fill:none;stroke-width:35.03px;"/>
    </g>
    <g transform="matrix(-1,0,0,1,990.914,17.8557)">
        <path d="M103.069,85.042C128.483,0.006 290.694,2.489 327.017,58.504" style="fill:none;stroke-width:42.13px;"/>
    </g>
    <g transform="matrix(1,0,0,1,30.304,39.3401)">
        <path d="M103.069,85.042C128.483,0.006 290.694,2.489 327.017,58.504" style="fill:none;stroke-width:42.13px;"/>
    </g>
    <g transform="matrix(-0.296145,0.111217,0.351575,0.93616,854.473,0.183946)">
        <path d="M753.098,320.068C745.663,317.425 748.599,287.341 757.813,302.083C767.758,317.996 755.437,335.455 749.349,322.266C741.332,304.897 766.801,306.471 764.974,322.917C764.449,327.642 750.617,327.373 750,325.521C746.439,314.839 752.188,316.172 763.672,304.687C762.522,321.362 765.09,322.839 759.115,326.823C749.787,333.041 748.191,273.474 759.271,288.708C764.63,296.077 770.312,323.28 763.672,304.687" style="fill:none;stroke-width:56.81px;"/>
    </g>
    <g transform="matrix(-0.499058,-0.135468,-0.261967,0.965077,732.266,206.423)">
        <path d="M753.098,320.068C745.663,317.425 748.599,287.341 757.813,302.083C767.758,317.996 755.437,335.455 749.349,322.266C741.332,304.897 766.801,306.471 764.974,322.917C764.449,327.642 750.617,327.373 750,325.521C746.439,314.839 752.188,316.172 763.672,304.687C762.522,321.362 765.09,322.839 759.115,326.823C749.787,333.041 748.191,273.474 759.271,288.708C764.63,296.077 770.312,323.28 763.672,304.687" style="fill:none;stroke-width:52.93px;"/>
    </g>
    <g transform="matrix(1,0,0,1,-17.9443,31.4331)">
        <path d="M729.767,415.955C658.512,401.091 640.398,253.246 722.565,164.917C815.771,64.721 909.163,233.933 891.276,342.448C889.487,353.303 888.545,364.959 882.813,374.349C833.635,454.908 733.696,414.9 729.767,415.955Z" style="fill:none;stroke-width:42.13px;"/>
    </g>
    <g transform="matrix(-1,0,0,1,1039.16,52.9175)">
        <path d="M729.767,415.955C658.512,401.091 640.398,253.246 722.565,164.917C815.771,64.721 909.163,233.933 891.276,342.448C889.487,353.303 888.545,364.959 882.813,374.349C833.635,454.908 733.696,414.9 729.767,415.955Z" style="fill:none;stroke-width:42.13px;"/>
    </g>
    <path d="M310.135,778.015C317.712,811.023 437.875,923.317 464.844,928.711C470.193,929.781 483.328,943.257 544.961,955.283C634.33,972.72 711.299,928.247 742.188,898.112C808.378,833.536 797.761,826.047 833.984,740.56C835.083,737.966 842.927,721.598 822.266,707.357C806.456,696.46 795.782,688.711 776.777,681.793C701.004,654.208 642.298,721.399 594.45,752.991C487.999,823.276 451.303,807.615 310.135,778.015Z" style="fill:none;stroke-width:42.13px;"/>
    <path d="M593.099,920.898C593.099,915.839 593.099,905.357 615.234,861.654C621.073,850.127 694.361,779.41 765.625,842.122" style="fill:none;stroke-width:42.13px;"/>
</svg>
