<?xml version="1.0" encoding="UTF-8" standalone="no"?>
<!DOCTYPE svg PUBLIC "-//W3C//DTD SVG 1.1//EN" "http://www.w3.org/Graphics/SVG/1.1/DTD/svg11.dtd">
<svg width="100%" height="100%" viewBox="0 0 1000 1000" version="1.1" xmlns="http://www.w3.org/2000/svg" xmlns:xlink="http://www.w3.org/1999/xlink" xml:space="preserve" xmlns:serif="http://www.serif.com/" style="fill-rule:evenodd;clip-rule:evenodd;stroke-linecap:round;stroke-linejoin:round;stroke-miterlimit:1.5;">
    <g transform="matrix(0.905714,0.0167424,-0.00891737,0.497192,-416.068,327.226)">
        <path d="M648.947,481.486C563.058,412.775 617.754,294.841 666.627,257.534C712.038,222.872 800.954,205.419 848.634,279.105C878.985,326.011 909.834,479.392 789.653,508.006C690.086,531.713 652.21,483.932 648.947,481.486Z" style="fill:none;stroke-width:57.65px;"/>
    </g>
    <g transform="matrix(-0.905788,0.0121076,0.00637309,0.497231,1409.44,338.687)">
        <path d="M648.947,481.486C563.058,412.775 617.754,294.841 666.627,257.534C712.038,222.872 800.954,205.419 848.634,279.105C878.985,326.011 909.834,479.392 789.653,508.006C690.086,531.713 652.21,483.932 648.947,481.486Z" style="fill:none;stroke-width:57.65px;"/>
    </g>
    <g transform="matrix(0.736579,0.00376917,-0.00393803,0.769579,-286.726,201.359)">
        <path d="M751.052,443.685C711.378,451.646 669.083,418.244 687.255,375.403C705.706,331.902 762.525,338.716 779.179,353.234C809.547,379.709 802.113,433.438 751.052,443.685Z" style="fill:none;stroke-width:55.94px;"/>
    </g>
    <g transform="matrix(-0.736589,0,0,0.769589,1280.75,212.16)">
        <path d="M751.052,443.685C711.378,451.646 669.083,418.244 687.255,375.403C705.706,331.902 762.525,338.716 779.179,353.234C809.547,379.709 802.113,433.438 751.052,443.685Z" style="fill:none;stroke-width:55.94px;"/>
    </g>
    <g transform="matrix(1,0,0,1,-20.9905,-5.47297)">
        <path d="M413.61,791.71C467.386,721.327 670.708,707.052 639.804,802.495C628.624,837.026 596.299,861.859 519.85,845.507C467.425,834.293 422.689,795.675 413.61,791.71Z" style="fill:none;stroke-width:42.13px;"/>
    </g>
    <g transform="matrix(1.05124,-0.0564319,0.0620049,1.15505,-55.7541,26.1083)">
        <path d="M80.834,256.706C72.384,238.628 161.278,140.67 270.158,141.201C412.038,141.893 527.014,23.514 532.399,31.743C649.278,210.365 859.207,111.293 924.529,288.789" style="fill:none;stroke-width:38.1px;"/>
    </g>
    <path d="M60.386,643.554C111.646,700.438 108.033,829.152 67.812,944.977C112.513,931.941 138.575,892.111 176.791,865.08C177.346,864.688 222.228,964.618 243.231,940.801C314.869,859.565 340.665,935.388 372.007,962.145C417.326,1000.84 426.724,921.164 465.076,910.936C503.774,951.94 559.946,1000.75 630.877,907.11C635.062,913.126 685.82,975.135 741.634,972.415C750.479,971.984 722.761,965.331 769.16,880.534C787.543,905.81 952.86,966.772 940.214,942.604C872.001,812.232 853.062,761.819 920.165,620.889" style="fill:none;stroke-width:42.13px;"/>
    <g transform="matrix(0.776401,0,0,0.94322,113.851,28.503)">
        <path d="M392.37,647.449C395.6,619.823 413.119,603.031 429.22,594.86C462.318,578.064 464.485,562.014 494.649,534.308C539.906,625.182 575.895,573.766 598.226,647.707" style="fill:none;stroke-width:48.78px;"/>
    </g>
    <g transform="matrix(1,0,0,1,3.90412,1.50158)">
        <path d="M467.744,640.238L465.249,640.495" style="fill:none;stroke-width:42.13px;"/>
    </g>
    <g transform="matrix(1,0,0,1,0.90095,-4.80507)">
        <path d="M522.844,646.677L520.88,647.707" style="fill:none;stroke-width:42.13px;"/>
    </g>
    <path d="M174.448,367.863C202.844,362.952 240.345,352.169 326.353,379.996" style="fill:none;stroke-width:42.13px;"/>
    <path d="M646.773,393.754C673.641,367.692 761.237,350.034 811.674,358.43" style="fill:none;stroke-width:42.13px;"/>
</svg>
