<?xml version="1.0" encoding="UTF-8" standalone="no"?>
<!DOCTYPE svg PUBLIC "-//W3C//DTD SVG 1.1//EN" "http://www.w3.org/Graphics/SVG/1.1/DTD/svg11.dtd">
<svg width="100%" height="100%" viewBox="0 0 1000 1000" version="1.1" xmlns="http://www.w3.org/2000/svg" xmlns:xlink="http://www.w3.org/1999/xlink" xml:space="preserve" xmlns:serif="http://www.serif.com/" style="fill-rule:evenodd;clip-rule:evenodd;stroke-linecap:round;stroke-linejoin:round;stroke-miterlimit:1.5;">
    <g transform="matrix(1,0,0,1,-24.1941,13.8791)">
        <path d="M505.06,376.516C540.738,475.532 751.394,605.526 751.177,606.176C746.13,621.315 557.579,575.725 460.023,593.235" style="fill:none;stroke-width:42.13px;"/>
    </g>
    <g transform="matrix(1.02779,-0.200607,-0.266516,-1.36547,557.598,3101.31)">
        <path d="M702.57,1549.78C689.299,1646.78 739.518,1707.1 809.416,1745.95" style="fill:none;stroke-width:34.22px;"/>
    </g>
    <g transform="matrix(-0.81948,-0.140221,0.235597,-1.37688,372.037,3066.11)">
        <path d="M702.57,1549.78C689.299,1646.78 739.518,1707.1 809.416,1745.95" style="fill:none;stroke-width:36.66px;"/>
    </g>
    <g transform="matrix(1.62566,0,0,0.965513,-269.85,50.146)">
        <path d="M389.28,843.583C354.615,840.282 287.673,743.667 381.286,693.64C401.992,682.575 533.648,664.371 585.99,688.131C637.865,711.679 635.864,826.081 577.657,822.918" style="fill:none;stroke-width:31.51px;"/>
    </g>
    <g transform="matrix(-0.728254,0.235535,0.401088,1.24013,841.139,-39.6294)">
        <path d="M62.796,102.868C89.172,69.148 150.9,14.446 262.585,102.198C297.127,129.339 431.656,153.684 437.629,147.711" style="fill:none;stroke-width:39.42px;"/>
    </g>
    <g transform="matrix(0.756245,0.193588,-0.321486,1.25588,164.448,-28.6611)">
        <path d="M62.796,102.868C89.172,69.148 150.9,14.446 262.585,102.198C297.127,129.339 431.656,153.684 437.629,147.711" style="fill:none;stroke-width:39.38px;"/>
    </g>
    <g transform="matrix(-0.625715,0,0,0.920709,923.72,52.9463)">
        <path d="M104.029,287.807C117.749,279.256 198.182,147.12 282.485,174.427C380.814,206.276 397.694,306.559 417.429,326.438C395.146,355.084 364.243,469.227 245.493,466.465C158.527,464.442 114.236,321.83 104.029,287.807Z" style="fill:none;stroke-width:53.53px;"/>
    </g>
    <g transform="matrix(0.625715,0,0,0.920709,89.3311,44.9005)">
        <path d="M104.029,287.807C117.749,279.256 198.182,147.12 282.485,174.427C380.814,206.276 397.694,306.559 417.429,326.438C395.146,355.084 364.243,469.227 245.493,466.465C158.527,464.442 114.236,321.83 104.029,287.807Z" style="fill:none;stroke-width:53.53px;"/>
    </g>
    <g transform="matrix(-0.30635,-1.49078,-0.542513,0.111485,1013.66,680.916)">
        <path d="M249.768,284.246C245.927,289.291 239.849,320.921 246.76,372.757" style="fill:none;stroke-width:36.79px;"/>
    </g>
    <g transform="matrix(0.201147,-0.922589,0.54538,0.118906,24.4351,526.099)">
        <path d="M249.768,284.246C245.927,289.291 239.849,320.921 246.76,372.757" style="fill:none;stroke-width:54.32px;"/>
    </g>
    <path d="M369.351,766.729C366.672,824.313 366.84,819.363 397.052,942.326C409.984,947.005 465.688,845.157 472.935,763.259" style="fill:none;stroke-width:42.13px;"/>
    <g transform="matrix(-1,0,0,1,1026.32,-1.89588)">
        <path d="M369.351,766.729C366.672,824.313 366.84,819.363 397.052,942.326C409.984,947.005 465.688,845.157 472.935,763.259" style="fill:none;stroke-width:42.13px;"/>
    </g>
    <path d="M460.622,859.507C558.028,859.288 565.696,852.659 574.817,852.133" style="fill:none;stroke-width:42.13px;"/>
    <path d="M931.897,314.928C941.445,319.422 927.61,365.537 926.343,369.76" style="fill:none;stroke-width:42.13px;"/>
    <path d="M97.563,385.603C95.301,381.139 89.545,369.782 87.458,323.867" style="fill:none;stroke-width:42.13px;"/>
    <g transform="matrix(1,0,0,1,10.8646,9.00522)">
        <path d="M417.941,89.798C418.966,89.341 463.202,106.078 502.631,153.101C504.095,154.847 539.85,107.397 589.298,92.967" style="fill:none;stroke-width:42.13px;"/>
    </g>
</svg>
