<?xml version="1.0" encoding="UTF-8" standalone="no"?>
<!DOCTYPE svg PUBLIC "-//W3C//DTD SVG 1.1//EN" "http://www.w3.org/Graphics/SVG/1.1/DTD/svg11.dtd">
<svg width="100%" height="100%" viewBox="0 0 1000 1000" version="1.1" xmlns="http://www.w3.org/2000/svg" xmlns:xlink="http://www.w3.org/1999/xlink" xml:space="preserve" xmlns:serif="http://www.serif.com/" style="fill-rule:evenodd;clip-rule:evenodd;stroke-linecap:round;stroke-linejoin:round;stroke-miterlimit:1.5;">
    <g transform="matrix(0.749043,0,0,0.955069,6.69375,-2.45724)">
        <path d="M25.776,25.214L-19.129,-11.811C24.032,10.756 25.285,21.145 25.776,25.214L27.723,26.763C73.111,26.7 209.909,27.578 290.998,85.178C387.304,153.586 446.965,360.111 351.518,422.469C323.346,440.874 11.899,539.177 52.258,846.183L50.93,833.192C54.132,876.825 96.611,948.528 147.752,896.963C149.26,895.443 160.983,883.623 162.414,875.764C170.855,829.414 163.311,829.079 171.41,782.581C183.057,715.718 195.365,718.722 229.067,656.862C223.975,656.161 129.295,787.507 189.206,961.858L194.207,974.001C213.215,1028.97 295.669,980.703 296.902,938.455C297.618,913.923 273.897,789.747 346.201,695.648C374.403,658.944 346.548,697.208 346.548,697.208C309.613,750.795 296.712,814.639 296.712,814.639C296.712,814.639 281.296,919.281 388.984,1012.98C399.348,1022 459.486,1002.11 463.75,974.429C468.606,942.901 418.466,910.058 427.759,854.285C435.634,807.018 432.295,803.598 507.85,728.167L501.488,732.847C418.519,802.001 434.698,875.956 448.246,918.245C464.162,967.928 511.517,1014.19 558.889,1022.92C582.846,1027.33 606.807,1022.15 626.709,1002.95L627.529,1000.6C499.154,808.727 707.954,732.241 739.964,727.434C805.275,717.626 814.617,724.315 843.211,771.971C897.312,862.135 1008.98,845.365 1008.98,824.344C1008.98,656.615 769.687,538.64 742.235,391.776C732.257,338.392 727.153,283.559 736.356,243.316C748.385,190.712 732.067,45.565 1067.88,37.813C1099.59,37.082 1255.6,31.401 1290.05,30.784L1343.6,-13.126C599.696,-3.84 -27.822,-15.936 -27.822,-15.936L27.723,26.763"/>
    </g>
</svg>
