<?xml version="1.0" encoding="UTF-8" standalone="no"?>
<!DOCTYPE svg PUBLIC "-//W3C//DTD SVG 1.1//EN" "http://www.w3.org/Graphics/SVG/1.1/DTD/svg11.dtd">
<svg width="100%" height="100%" viewBox="0 0 1000 1000" version="1.1" xmlns="http://www.w3.org/2000/svg" xmlns:xlink="http://www.w3.org/1999/xlink" xml:space="preserve" xmlns:serif="http://www.serif.com/" style="fill-rule:evenodd;clip-rule:evenodd;stroke-linecap:round;stroke-linejoin:round;stroke-miterlimit:1.5;">
    <g transform="matrix(0.262467,-1.28113,0.820896,0.168179,-306.744,634.971)">
        <path d="M226.778,681.758C204.784,659.764 197.457,402.369 324.205,425.414C388.412,437.088 426.204,530.263 392.883,614.677C343.194,740.555 243.009,755.453 229.174,679.362C226.156,662.763 224.272,558.054 238.757,533.222C253.725,507.563 269.061,444.566 326.601,463.746C350.194,471.61 381.612,469.728 385.696,559.575C390.059,655.568 252.413,776.839 246.743,632.246C239.466,446.693 336.574,479.063 355.35,524.438C399.013,629.957 268.641,743.561 256.326,615.476C241.807,464.485 334.97,497.8 347.364,536.417C377.784,631.197 262.542,699.413 256.09,561.382C254.67,530.985 252.958,575.095 253.93,573.151" style="fill:none;stroke-width:38.37px;"/>
    </g>
    <g transform="matrix(-0.262467,-1.28113,-0.820896,0.168179,1314.61,647.167)">
        <path d="M226.778,681.758C204.784,659.764 197.457,402.369 324.205,425.414C388.412,437.088 426.204,530.263 392.883,614.677C343.194,740.555 243.009,755.453 229.174,679.362C226.156,662.763 224.272,558.054 238.757,533.222C253.725,507.563 269.061,444.566 326.601,463.746C350.194,471.61 381.612,469.728 385.696,559.575C390.059,655.568 252.413,776.839 246.743,632.246C239.466,446.693 336.574,479.063 355.35,524.438C399.013,629.957 268.641,743.561 256.326,615.476C241.807,464.485 334.97,497.8 347.364,536.417C377.784,631.197 262.542,699.413 256.09,561.382C254.67,530.985 252.958,575.095 253.93,573.151" style="fill:none;stroke-width:38.37px;"/>
    </g>
    <g transform="matrix(0.975147,-0.221557,0.221557,0.975147,-46.1628,68.2639)">
        <path d="M105.171,101.816C136.684,121.943 229.538,86.113 295.759,55.177C324.397,41.799 354.163,103.86 359.523,134.234" style="fill:none;stroke-width:42.13px;"/>
    </g>
    <g transform="matrix(-0.975147,-0.221557,-0.221557,0.975147,1054.03,80.4594)">
        <path d="M105.171,101.816C136.684,121.943 229.538,86.113 295.759,55.177C324.397,41.799 354.163,103.86 359.523,134.234" style="fill:none;stroke-width:42.13px;"/>
    </g>
    <g transform="matrix(1.05612,0.544274,-0.458098,0.888902,351.006,-60.0413)">
        <path d="M156.297,936.006C150.703,933.647 129.017,924.499 113.38,873.417C87.517,788.931 114.477,714.616 118.053,700.824" style="fill:none;stroke-width:38.37px;"/>
    </g>
    <g transform="matrix(-0.91893,0.394421,0.394421,0.91893,690.33,-47.0904)">
        <path d="M156.297,936.006C150.703,933.647 129.017,924.499 113.38,873.417C87.517,788.931 114.477,714.616 118.053,700.824" style="fill:none;stroke-width:42.13px;"/>
    </g>
    <g transform="matrix(1,0,0,1,-14.7671,58.5617)">
        <path d="M439.733,872.354C343.647,828.745 269.627,701.076 401.696,637.487C653.974,516.02 881.064,798.017 621.42,882.48C607.782,886.916 531.526,902.482 439.733,872.354Z"/>
    </g>
    <g transform="matrix(1,0,0,1,-20.9039,68.3697)">
        <path d="M445.87,862.547C537.663,892.674 613.919,877.108 627.557,872.672C887.201,788.209 660.11,506.212 407.833,627.679C275.764,691.268 349.784,818.937 445.87,862.547Z" style="fill:none;stroke-width:42.13px;"/>
    </g>
    <g transform="matrix(1,0,0,1,24.9072,-0.428595)">
        <path d="M450.843,405.067C446.367,478.483 436.651,484.693 421.864,493.319C388.692,512.669 329.817,581.636 414.383,589.324" style="fill:none;stroke-width:42.13px;"/>
    </g>
    <g transform="matrix(-1,0,0,1,1001.19,3.31187)">
        <path d="M450.843,405.067C446.367,478.483 436.651,484.693 421.864,493.319C388.692,512.669 329.817,581.636 414.383,589.324" style="fill:none;stroke-width:42.13px;"/>
    </g>
    <path d="M242.259,344.553C241.702,344.744 241.144,344.935 240.586,345.127" style="fill:none;stroke-width:42.13px;"/>
    <g transform="matrix(1,0,0,1,-1.73731,5.66733)">
        <path d="M766.746,350.205L766.776,348.962" style="fill:none;stroke-width:42.13px;"/>
    </g>
</svg>
