<?xml version="1.0" encoding="UTF-8" standalone="no"?>
<!DOCTYPE svg PUBLIC "-//W3C//DTD SVG 1.1//EN" "http://www.w3.org/Graphics/SVG/1.1/DTD/svg11.dtd">
<svg width="100%" height="100%" viewBox="0 0 1000 1000" version="1.1" xmlns="http://www.w3.org/2000/svg" xmlns:xlink="http://www.w3.org/1999/xlink" xml:space="preserve" xmlns:serif="http://www.serif.com/" style="fill-rule:evenodd;clip-rule:evenodd;stroke-linecap:round;stroke-linejoin:round;stroke-miterlimit:1.5;">
    <g transform="matrix(0.80278,-2.97171e-17,2.63628e-17,-0.927436,-397.969,2438.14)">
        <path d="M1085.69,1869.54C967.718,1879 1016.08,1658.24 1137.47,1678.9C1194.99,1688.69 1212.09,1760.45 1214.34,1769.67C1235.57,1856.72 1093.88,1868.93 1085.69,1869.54Z" style="fill:none;stroke-width:48.58px;"/>
    </g>
    <g transform="matrix(1.08154,0,0,1.04396,-7.71218,-4.27924)">
        <path d="M185.14,304.459C199.851,252.178 243.327,235.757 254.951,234.863C315.386,230.214 332.712,267.003 337.123,273.62" style="fill:none;stroke-width:39.64px;"/>
    </g>
    <g transform="matrix(2.33344,0,0,1.4309,-337.429,-238.152)">
        <path d="M185.14,304.459C199.851,252.178 243.327,235.757 254.951,234.863C315.386,230.214 332.712,267.003 337.123,273.62" style="fill:none;stroke-width:21.77px;"/>
    </g>
    <g transform="matrix(1.30571,0,0,1.09855,-971.561,-1158.21)">
        <path d="M1036.65,1538.93C1036.28,1486.2 1056.86,1416.72 1118.57,1432.94C1162.99,1444.63 1226.25,1486.49 1220.39,1550.04" style="fill:none;stroke-width:34.92px;"/>
    </g>
    <g transform="matrix(1.56481,0,0,1.08107,-1275.97,-1186.94)">
        <path d="M1161.91,1593.13C1158.28,1578.98 1157.93,1579.88 1156.16,1564.54" style="fill:none;stroke-width:31.33px;"/>
    </g>
    <g transform="matrix(-1.58177,0.0255222,0.0201174,1.2468,2259.2,-1479.52)">
        <path d="M1160.47,1603.37C1156.84,1589.21 1157.93,1579.88 1156.16,1564.54" style="fill:none;stroke-width:29.58px;"/>
    </g>
    <g transform="matrix(1.362,0,0,1.3798,-815.564,-1558.15)">
        <path d="M702.57,1549.78C791.348,1619.14 757.188,1721.08 779.722,1768.4" style="fill:none;stroke-width:30.73px;"/>
    </g>
    <g transform="matrix(-1,0,0,1,1011.1,-1.7932)">
        <path d="M185.14,304.459C199.851,252.178 243.327,235.757 254.951,234.863C315.386,230.214 332.712,267.003 337.123,273.62" style="fill:none;stroke-width:42.13px;"/>
    </g>
    <g transform="matrix(-2.15752,0,0,1.37064,1315.96,-225.817)">
        <path d="M185.14,304.459C199.851,252.178 243.327,235.757 254.951,234.863C315.386,230.214 332.712,267.003 337.123,273.62" style="fill:none;stroke-width:23.31px;"/>
    </g>
    <g transform="matrix(1.362,0,0,1.3798,-815.564,-1558.15)">
        <path d="M702.57,1549.78C791.348,1619.14 757.188,1721.08 779.722,1768.4" style="fill:none;stroke-width:30.73px;"/>
    </g>
    <g transform="matrix(1.362,0,0,1.3798,-815.564,-1558.15)">
        <path d="M702.57,1549.78C791.348,1619.14 757.188,1721.08 779.722,1768.4" style="fill:none;stroke-width:30.73px;"/>
    </g>
    <g transform="matrix(-1.362,0,0,1.22575,1831.69,-1319.91)">
        <path d="M702.57,1549.78C791.348,1619.14 757.188,1721.08 779.722,1768.4" style="fill:none;stroke-width:32.52px;"/>
    </g>
    <g transform="matrix(-1.362,0,0,1.22575,1831.69,-1319.91)">
        <path d="M702.57,1549.78C791.348,1619.14 757.188,1721.08 779.722,1768.4" style="fill:none;stroke-width:32.52px;"/>
    </g>
    <g transform="matrix(-1.362,0,0,1.22575,1831.69,-1319.91)">
        <path d="M702.57,1549.78C791.348,1619.14 757.188,1721.08 779.722,1768.4" style="fill:none;stroke-width:32.52px;"/>
    </g>
</svg>
