<?xml version="1.0" encoding="UTF-8" standalone="no"?>
<!DOCTYPE svg PUBLIC "-//W3C//DTD SVG 1.1//EN" "http://www.w3.org/Graphics/SVG/1.1/DTD/svg11.dtd">
<svg width="100%" height="100%" viewBox="0 0 1000 1000" version="1.1" xmlns="http://www.w3.org/2000/svg" xmlns:xlink="http://www.w3.org/1999/xlink" xml:space="preserve" xmlns:serif="http://www.serif.com/" style="fill-rule:evenodd;clip-rule:evenodd;stroke-linecap:round;stroke-linejoin:round;stroke-miterlimit:1.5;">
    <g transform="matrix(0.888282,0,0,0.326221,125.665,656.348)">
        <path d="M241.203,841.387C210.199,827.277 139.086,413.878 179.059,174.039" style="fill:none;stroke-width:62.97px;"/>
    </g>
    <g transform="matrix(0.89575,0,0,0.569449,160.992,623.71)">
        <path d="M138.609,155.759C156.112,104.081 263.334,90.158 357.789,89.236C454.919,88.288 591.777,96.607 620.239,172.324" style="fill:none;stroke-width:56.14px;"/>
    </g>
    <g transform="matrix(0.314841,-0.000777145,0.00317823,0.97957,349.031,283.701)">
        <path d="M359.034,395.733C358.99,395.728 306.412,334.285 296.08,289.606C330.523,256.298 661.454,256.562 693.753,288.452C700.45,295.065 694.546,299.855 626.786,385.182" style="fill:none;stroke-width:57.9px;"/>
    </g>
    <g transform="matrix(0.888282,0,0,0.326221,162.587,662.425)">
        <path d="M198.763,823.923C236.671,849.15 292.172,856.792 330.127,862.104C353.375,865.357 396.071,865.103 419.665,862.564C469.14,857.242 540.745,845.875 552.034,828.741" style="fill:none;stroke-width:62.97px;"/>
    </g>
    <g transform="matrix(-0.888282,0,0,0.326221,866.46,659.051)">
        <path d="M241.203,841.387C210.199,827.277 130.162,425.664 170.135,185.825" style="fill:none;stroke-width:62.97px;"/>
    </g>
    <g transform="matrix(1,0,0,0.807662,7.08549,177.484)">
        <path d="M190.356,463.185C198.181,443.195 213.223,324.734 287.954,125.408C305.386,78.911 387.944,67.81 493.427,68.118C609.184,68.455 679.474,71.245 700.99,131.509C720.534,186.252 820.575,461.944 800.455,476.754C793.943,481.546 656.434,448.46 501.915,447.456C295.246,446.112 208.332,471.574 190.356,463.185Z" style="fill:none;stroke-width:46.36px;"/>
    </g>
    <g transform="matrix(-0.633445,-0.773788,0.773788,-0.633445,394.215,1118.15)">
        <path d="M492.884,137.081C492.908,91.213 494.09,91.684 491.793,66.419" style="fill:none;stroke-width:42.13px;"/>
    </g>
    <g transform="matrix(0.633445,-0.773788,-0.773788,-0.633445,596.573,1126.25)">
        <path d="M492.884,137.081C492.908,91.213 494.09,91.684 491.793,66.419" style="fill:none;stroke-width:42.13px;"/>
    </g>
    <g transform="matrix(0.992445,-0.122691,0.122691,0.992445,-56.7871,39.7349)">
        <path d="M492.884,137.081C492.908,91.213 494.09,91.684 491.793,66.419" style="fill:none;stroke-width:42.13px;"/>
    </g>
    <g transform="matrix(-0.809482,-0.122691,-0.100072,0.992445,998.749,46.1618)">
        <path d="M492.884,137.081C492.908,91.213 494.09,91.684 491.793,66.419" style="fill:none;stroke-width:47.35px;"/>
    </g>
    <g transform="matrix(0.456517,-0.889715,0.889715,0.456517,-211.792,760.672)">
        <path d="M492.884,137.081C492.908,91.213 494.09,91.684 491.793,66.419" style="fill:none;stroke-width:42.13px;"/>
    </g>
    <g transform="matrix(-0.456517,-0.889715,-0.889715,0.456517,1201.19,747.845)">
        <path d="M492.884,137.081C492.908,91.213 494.09,91.684 491.793,66.419" style="fill:none;stroke-width:42.13px;"/>
    </g>
    <g transform="matrix(0.636773,-0.771052,0.771052,0.636773,-226.139,521.17)">
        <path d="M492.884,137.081C492.908,91.213 494.09,91.684 491.793,66.419" style="fill:none;stroke-width:42.13px;"/>
    </g>
    <g transform="matrix(-0.636773,-0.771052,-0.771052,0.636773,1216.93,529.273)">
        <path d="M492.884,137.081C492.908,91.213 494.09,91.684 491.793,66.419" style="fill:none;stroke-width:42.13px;"/>
    </g>
    <g transform="matrix(0.874701,-0.484663,0.484663,0.874701,-193.784,247.282)">
        <path d="M492.884,137.081C492.908,91.213 494.09,91.684 491.793,66.419" style="fill:none;stroke-width:42.13px;"/>
    </g>
    <g transform="matrix(-0.707609,-0.448226,-0.416048,0.889135,1126.58,237.015)">
        <path d="M492.884,137.081C492.908,91.213 494.09,91.684 491.793,66.419" style="fill:none;stroke-width:49.37px;"/>
    </g>
    <g transform="matrix(-0.137394,-0.990517,0.990517,-0.137394,41.1898,1016.09)">
        <path d="M492.884,137.081C492.908,91.213 494.09,91.684 491.793,66.419" style="fill:none;stroke-width:42.13px;"/>
    </g>
    <g transform="matrix(0.137394,-0.990517,-0.990517,-0.137394,955.703,1023.48)">
        <path d="M492.884,137.081C492.908,91.213 494.09,91.684 491.793,66.419" style="fill:none;stroke-width:42.13px;"/>
    </g>
</svg>
