<?xml version="1.0" encoding="UTF-8" standalone="no"?>
<!DOCTYPE svg PUBLIC "-//W3C//DTD SVG 1.1//EN" "http://www.w3.org/Graphics/SVG/1.1/DTD/svg11.dtd">
<svg width="100%" height="100%" viewBox="0 0 1000 1000" version="1.1" xmlns="http://www.w3.org/2000/svg" xmlns:xlink="http://www.w3.org/1999/xlink" xml:space="preserve" xmlns:serif="http://www.serif.com/" style="fill-rule:evenodd;clip-rule:evenodd;stroke-linecap:round;stroke-linejoin:round;stroke-miterlimit:1.5;">
    <g transform="matrix(1.32036,0,0,0.717247,-59.4334,284.5)">
        <path d="M241.203,841.387C210.199,827.277 139.086,413.878 179.059,174.039" style="fill:none;stroke-width:39.66px;"/>
    </g>
    <g transform="matrix(1.32036,0,0,0.717247,-4.55233,297.862)">
        <path d="M362.416,243.527C242.328,238.491 136.98,196.618 138.609,155.759C140.403,110.772 200.815,-67.168 376.985,-61.607C558.638,-55.873 598.181,84.346 619.596,166.356C623.324,180.632 555.106,251.609 362.416,243.527Z" style="fill:none;stroke-width:39.66px;"/>
    </g>
    <g transform="matrix(1,0,0,0.975601,16.221,5.58051)">
        <path d="M427.252,236.089C405.36,170.412 421.995,120.847 479.245,120.394C497.461,120.25 511.472,125.36 521.369,134.484C544.12,155.46 545.123,197.648 525.475,245.973" style="fill:none;stroke-width:42.65px;"/>
    </g>
    <g transform="matrix(1.32036,0,0,1.18134,-4.55233,-84.5168)">
        <path d="M198.763,823.923C236.671,849.15 292.172,856.792 330.127,862.104C353.375,865.357 396.071,865.103 419.665,862.564C469.14,857.242 540.745,845.875 552.034,828.741" style="fill:none;stroke-width:33.63px;"/>
    </g>
    <g transform="matrix(-1.32036,0,0,0.717247,1041.7,290.443)">
        <path d="M241.203,841.387C210.199,827.277 130.162,425.664 170.135,185.825" style="fill:none;stroke-width:39.66px;"/>
    </g>
</svg>
