<?xml version="1.0" encoding="UTF-8" standalone="no"?>
<!DOCTYPE svg PUBLIC "-//W3C//DTD SVG 1.1//EN" "http://www.w3.org/Graphics/SVG/1.1/DTD/svg11.dtd">
<svg width="100%" height="100%" viewBox="0 0 1000 1000" version="1.1" xmlns="http://www.w3.org/2000/svg" xmlns:xlink="http://www.w3.org/1999/xlink" xml:space="preserve" xmlns:serif="http://www.serif.com/" style="fill-rule:evenodd;clip-rule:evenodd;stroke-linecap:round;stroke-linejoin:round;stroke-miterlimit:1.5;">
    <g transform="matrix(1,0,0,1,-67.0401,12.1542)">
        <path d="M241.203,841.387C210.199,827.277 139.086,413.878 179.059,174.039" style="fill:none;stroke-width:42.13px;"/>
    </g>
    <g transform="matrix(1,0,0,1,-25.4748,30.7846)">
        <path d="M362.416,243.527C242.328,238.491 136.98,196.618 138.609,155.759C140.403,110.772 263.334,90.158 357.789,89.236C454.919,88.288 591.777,96.607 620.239,172.324C625.135,185.349 555.106,251.609 362.416,243.527Z" style="fill:none;stroke-width:42.13px;"/>
    </g>
    <g transform="matrix(1,0,0,1,-25.4748,30.7846)">
        <path d="M198.763,823.923C236.671,849.15 292.172,856.792 330.127,862.104C353.375,865.357 396.071,865.103 419.665,862.564C469.14,857.242 540.745,845.875 552.034,828.741" style="fill:none;stroke-width:42.13px;"/>
    </g>
    <g transform="matrix(-1,0,0,1,766.924,20.4412)">
        <path d="M241.203,841.387C210.199,827.277 130.162,425.664 170.135,185.825" style="fill:none;stroke-width:42.13px;"/>
    </g>
    <g transform="matrix(1.02984,0,0,0.97248,-26.3134,4.75394)">
        <path d="M601.265,215.444C565.622,197.489 983.737,117.444 934.463,471.573C912.598,628.713 614.855,813.819 562.876,819.595" style="fill:none;stroke-width:42.07px;"/>
    </g>
    <g transform="matrix(0.6855,0,0,0.691673,200.267,140.031)">
        <path d="M601.265,215.444C565.622,197.489 983.737,117.444 934.463,471.573C912.598,628.713 614.855,813.819 562.876,819.595" style="fill:none;stroke-width:61.19px;"/>
    </g>
</svg>
