<?xml version="1.0" encoding="UTF-8" standalone="no"?>
<!DOCTYPE svg PUBLIC "-//W3C//DTD SVG 1.1//EN" "http://www.w3.org/Graphics/SVG/1.1/DTD/svg11.dtd">
<svg width="100%" height="100%" viewBox="0 0 1000 1000" version="1.1" xmlns="http://www.w3.org/2000/svg" xmlns:xlink="http://www.w3.org/1999/xlink" xml:space="preserve" xmlns:serif="http://www.serif.com/" style="fill-rule:evenodd;clip-rule:evenodd;stroke-linecap:round;stroke-linejoin:round;stroke-miterlimit:1.5;">
    <g transform="matrix(0.978595,0.386627,-0.308416,0.780635,331.983,-86.846)">
        <path d="M254.233,362.082C229.23,320.054 286.7,257.7 319.373,330.884C347.793,394.54 278.928,508.363 199.389,425.777C181.76,407.473 166.478,377.412 166.125,333.929C165.8,293.908 189.331,237.531 228.993,209.547C272.798,178.64 333.408,196.921 372.71,243.566C461.747,349.237 380.522,618.86 207.216,549.848C107.087,509.975 71.403,357.473 92.308,272.679C116.673,173.849 229.091,7.585 385.385,135.64C441.509,181.624 511.84,266.966 487.355,418.129C483.75,440.384 455.23,606.149 316.418,650.397" style="fill:none;stroke-width:44.27px;"/>
    </g>
    <g transform="matrix(1,0,0,1,3.1765,-30.1794)">
        <path d="M217.389,573.745C223.507,586.175 335.052,700.682 498.113,701.889C658.917,703.079 741.417,634.024 797.49,554.974" style="fill:none;stroke-width:42.13px;"/>
    </g>
    <g transform="matrix(0.911255,0,0,0.557178,48.7856,388.936)">
        <path d="M217.389,573.745C223.507,586.175 335.052,700.682 498.113,701.889C658.917,703.079 744.371,615.881 800.444,536.832" style="fill:none;stroke-width:55.79px;"/>
    </g>
    <g transform="matrix(0.874551,0,0,0.998693,37.5241,-39.3053)">
        <path d="M203.777,589.67C208.888,578.278 194.269,610.859 232.068,743.157" style="fill:none;stroke-width:44.89px;"/>
    </g>
    <g transform="matrix(-0.874551,0,0,0.998693,984.131,-62.0132)">
        <path d="M203.777,589.67C208.888,578.278 194.269,610.859 232.068,743.157" style="fill:none;stroke-width:44.89px;"/>
    </g>
    <g transform="matrix(1,0,0,1,51.9166,-28.5001)">
        <path d="M397.969,821.224C406.585,850.726 446.693,859.771 377.983,951.385" style="fill:none;stroke-width:42.13px;"/>
    </g>
    <g transform="matrix(-0.999954,-0.00960187,-0.00960187,0.999954,991.613,-28.1966)">
        <path d="M397.969,821.224C406.585,850.726 446.693,859.771 377.983,951.385" style="fill:none;stroke-width:42.13px;"/>
    </g>
    <g transform="matrix(1,0,0,1,5.49785,-39.366)">
        <path d="M425.397,964.029C498.892,964.496 531.137,965.944 598.165,961.822" style="fill:none;stroke-width:42.13px;"/>
    </g>
</svg>
