<?xml version="1.0" encoding="UTF-8" standalone="no"?>
<!DOCTYPE svg PUBLIC "-//W3C//DTD SVG 1.1//EN" "http://www.w3.org/Graphics/SVG/1.1/DTD/svg11.dtd">
<svg width="100%" height="100%" viewBox="0 0 1000 1000" version="1.1" xmlns="http://www.w3.org/2000/svg" xmlns:xlink="http://www.w3.org/1999/xlink" xml:space="preserve" xmlns:serif="http://www.serif.com/" style="fill-rule:evenodd;clip-rule:evenodd;stroke-linecap:round;stroke-linejoin:round;stroke-miterlimit:1.5;">
    <g transform="matrix(1.48331,0,0,0.50155,-129.563,508.35)">
        <path d="M241.203,841.387C210.199,827.277 178.921,506.967 179.059,174.039" style="fill:none;stroke-width:38.06px;"/>
    </g>
    <g transform="matrix(1.48331,0,0,0.50155,-67.9088,517.694)">
        <path d="M442.222,64.33C539.352,63.382 591.777,96.607 620.239,172.324C625.135,185.349 555.106,251.609 362.416,243.527C242.328,238.491 136.98,196.618 138.609,155.759C140.403,110.772 205.458,61.306 299.913,60.384" style="fill:none;stroke-width:38.06px;"/>
    </g>
    <g transform="matrix(0.994961,0.100263,-0.100263,0.994961,60.3646,-40.4025)">
        <path d="M428.938,573.048C445.778,497.875 466.42,402.006 459.633,324.545C440.717,108.642 336.123,70.999 338.072,74.775" style="fill:none;stroke-width:42.13px;"/>
    </g>
    <g transform="matrix(1.33602,0,0,1.00943,-60.5922,-11.4627)">
        <path d="M428.938,573.048C445.778,497.875 466.42,402.006 459.633,324.545C440.717,108.642 336.123,70.999 338.072,74.775" style="fill:none;stroke-width:35.59px;"/>
    </g>
    <g transform="matrix(0.936432,0.350848,-0.350848,0.936432,-209.315,-133.966)">
        <path d="M542.638,144.221C551.816,112.81 642.759,53.793 735.74,100.284C754.166,109.497 626.45,250.891 542.638,144.221Z" style="fill:none;stroke-width:42.13px;"/>
    </g>
    <g transform="matrix(0.925367,0.379073,-0.379073,0.925367,-208.677,49.0633)">
        <path d="M542.638,144.221C551.816,112.81 642.759,53.793 735.74,100.284C754.166,109.497 626.45,250.891 542.638,144.221Z" style="fill:none;stroke-width:42.13px;"/>
    </g>
    <g transform="matrix(-0.901369,0.433052,0.433052,0.901369,1200.84,-48.577)">
        <path d="M542.638,144.221C551.816,112.81 642.759,53.793 735.74,100.284C754.166,109.497 626.45,250.891 542.638,144.221Z" style="fill:none;stroke-width:42.13px;"/>
    </g>
    <g transform="matrix(-0.825444,0.564484,0.564484,0.825444,1090.17,-326.395)">
        <path d="M542.638,144.221C551.816,112.81 642.759,53.793 735.74,100.284C754.166,109.497 626.45,250.891 542.638,144.221Z" style="fill:none;stroke-width:42.13px;"/>
    </g>
    <g transform="matrix(1.48331,0,0,0.50155,-67.9088,517.694)">
        <path d="M198.763,823.923C236.671,849.15 292.172,856.792 330.127,862.104C353.375,865.357 396.071,865.103 419.665,862.564C469.14,857.242 540.745,845.875 552.034,828.741" style="fill:none;stroke-width:38.06px;"/>
    </g>
    <g transform="matrix(-1.48331,0,0,0.50155,1107.47,512.506)">
        <path d="M241.203,841.387C210.199,827.277 178.053,492.368 170.135,185.825" style="fill:none;stroke-width:38.06px;"/>
    </g>
</svg>
