<?xml version="1.0" encoding="UTF-8" standalone="no"?>
<!DOCTYPE svg PUBLIC "-//W3C//DTD SVG 1.1//EN" "http://www.w3.org/Graphics/SVG/1.1/DTD/svg11.dtd">
<svg width="100%" height="100%" viewBox="0 0 1000 1000" version="1.1" xmlns="http://www.w3.org/2000/svg" xmlns:xlink="http://www.w3.org/1999/xlink" xml:space="preserve" xmlns:serif="http://www.serif.com/" style="fill-rule:evenodd;clip-rule:evenodd;stroke-linecap:round;stroke-linejoin:round;stroke-miterlimit:1.5;">
    <g transform="matrix(-0.996881,-0.174125,-0.0929315,1.22289,544.244,-193.256)">
        <path d="M123.513,367.285C129.646,343.967 196.929,216.144 341.553,293.417C376.184,311.921 371.743,321.235 358.635,358.49C328.937,442.896 254.425,440.235 243.13,439.832C150.457,436.522 127.602,376.371 123.513,367.285Z" style="fill:none;stroke-width:39.4px;"/>
    </g>
    <g transform="matrix(0.996881,-0.174125,0.0929315,1.22289,483.51,-186.792)">
        <path d="M123.513,367.285C129.646,343.967 196.929,216.144 341.553,293.417C376.184,311.921 371.743,321.235 358.635,358.49C328.937,442.896 254.425,440.235 243.13,439.832C150.457,436.522 127.602,376.371 123.513,367.285Z" style="fill:none;stroke-width:39.4px;"/>
    </g>
    <g transform="matrix(-0.735773,0.00349101,0.00371058,1.79753,753.897,-422.724)">
        <path d="M671.489,355.135C657.093,334.852 661.43,318.318 664.479,308.872" style="fill:none;stroke-width:30.65px;"/>
    </g>
    <g transform="matrix(0.735773,0.00349101,-0.00371058,1.79753,273.857,-416.261)">
        <path d="M671.489,355.135C657.093,334.852 661.43,318.318 664.479,308.872" style="fill:none;stroke-width:30.65px;"/>
    </g>
    <g transform="matrix(0.975672,0,0,0.805095,1.54757,71.6643)">
        <path d="M63.612,367.689C131.947,476.292 227.734,421.606 292.517,447.26C367.56,476.977 385.656,496.075 369.439,680.7" style="fill:none;stroke-width:47.11px;"/>
    </g>
    <g transform="matrix(-0.975672,0,0,0.805095,1005.27,79.965)">
        <path d="M63.612,367.689C131.947,476.292 227.734,421.606 292.517,447.26C367.56,476.977 385.656,496.075 369.439,680.7" style="fill:none;stroke-width:47.11px;"/>
    </g>
    <g transform="matrix(0.907547,-0.0498726,0.0648324,0.803316,-11.8497,85.4285)">
        <path d="M357.556,692.706C263.244,716.284 279.092,810.984 371.884,842.89C449.357,869.528 508.655,881.217 590.19,865.746C691.937,846.441 744.857,789.352 673.252,720.979" style="fill:none;stroke-width:48.44px;"/>
    </g>
    <g transform="matrix(1,0,0,0.805095,137.619,72.2671)">
        <path d="M423.904,774.786C443.253,768.311 437.649,732.632 417.489,719.68" style="fill:none;stroke-width:46.41px;"/>
    </g>
    <g transform="matrix(-1,0,0,0.805095,856.551,69.0171)">
        <path d="M423.904,774.786C443.253,768.311 437.649,732.632 417.489,719.68" style="fill:none;stroke-width:46.41px;"/>
    </g>
    <g id="Layer1">
    </g>
    <path d="M500.362,773.772C497.725,856.77 386.686,808.272 371.042,888.957C359.26,949.725 457.959,1004.31 527.37,920.029C553.548,888.241 609.312,822.394 666.856,891.446" style="fill:none;stroke-width:42.13px;"/>
    <path d="M670.472,892.227C679.433,882.027 717.109,884.009 721.213,884.225" style="fill:none;stroke-width:42.13px;"/>
    <path d="M664.951,950.99C663.805,942.023 659.088,913.96 665.491,901.154" style="fill:none;stroke-width:42.13px;"/>
    <path d="M55.218,153.116C47.848,101.526 58.253,103.358 82.119,69.052" style="fill:none;stroke-width:42.13px;"/>
    <g transform="matrix(0.978789,-0.0802261,0.107702,1.31401,18.8263,39.3858)">
        <path d="M918.373,63.482C930.717,80.874 941.188,84.618 946.253,94.212C949.583,100.519 948.533,110.487 951.342,124.534" style="fill:none;stroke-width:36.25px;"/>
    </g>
</svg>
