<?xml version="1.0" encoding="UTF-8" standalone="no"?>
<!DOCTYPE svg PUBLIC "-//W3C//DTD SVG 1.1//EN" "http://www.w3.org/Graphics/SVG/1.1/DTD/svg11.dtd">
<svg width="100%" height="100%" viewBox="0 0 1000 1000" version="1.1" xmlns="http://www.w3.org/2000/svg" xmlns:xlink="http://www.w3.org/1999/xlink" xml:space="preserve" xmlns:serif="http://www.serif.com/" style="fill-rule:evenodd;clip-rule:evenodd;stroke-linecap:round;stroke-linejoin:round;stroke-miterlimit:1.5;">
    <g transform="matrix(0.879118,0,0,0.892478,-25.9429,-23.9819)">
        <path d="M449.735,444.555C463.288,452.298 476.842,460.04 490.396,467.782C472.855,515.309 472.568,514.653 449.934,559.623C445.667,557.178 402.387,532.378 395.126,531.779L390.016,528.972C387.63,532.048 373.755,547.216 363.029,551.039C348.72,556.14 336.638,555.741 335.625,555.663L328.115,558.697C325.044,574.001 321.973,589.305 318.902,604.609C268.269,602.958 268.8,602.478 218.986,595.188C219.96,590.367 229.84,541.474 228.117,534.395L229.447,533.446C225.684,532.45 206.302,525.597 198.595,517.216C188.313,506.034 183.963,494.755 183.639,493.792L178.83,489.879C163.236,490.587 147.643,491.295 132.05,492.003C121.45,442.464 122.043,442.864 117.113,392.761C122.027,392.545 171.86,390.35 178.315,386.972L177.745,384.875C176.893,381.077 174.031,360.719 177.912,350.015C183.09,335.733 191.09,326.671 191.795,325.939L192.671,327.176C187.338,312.506 182.005,297.836 176.672,283.166C220.784,258.253 220.579,258.94 266.922,239.27C268.596,243.895 285.575,290.798 290.727,295.949L292.558,294.779C295.929,292.831 314.502,284.02 325.877,284.527C341.053,285.202 352.091,290.131 353,290.585L360.008,291.781C370.945,280.644 381.882,269.507 392.819,258.37C434.316,287.429 433.609,287.54 471.338,320.874C467.887,324.378 432.889,359.921 430.462,366.79L431.792,374.517C434.508,377.305 447.612,393.145 449.915,404.296C452.987,419.173 450.921,431.084 450.704,432.077" style="fill:none;stroke-width:47.57px;"/>
    </g>
    <g transform="matrix(0.785579,0.394607,-0.400604,0.797517,679.605,-99.9954)">
        <path d="M449.735,444.555C463.288,452.298 476.842,460.04 490.396,467.782C472.855,515.309 472.568,514.653 449.934,559.623C445.667,557.178 402.387,532.378 395.126,531.779L390.016,528.972C387.63,532.048 373.755,547.216 363.029,551.039C348.72,556.14 336.638,555.741 335.625,555.663L328.115,558.697C325.044,574.001 321.973,589.305 318.902,604.609C268.269,602.958 268.8,602.478 218.986,595.188C219.96,590.367 229.84,541.474 228.117,534.395L229.447,533.446C225.684,532.45 206.302,525.597 198.595,517.216C188.313,506.034 183.963,494.755 183.639,493.792L178.83,489.879C163.236,490.587 147.643,491.295 132.05,492.003C121.45,442.464 122.043,442.864 117.113,392.761C122.027,392.545 171.86,390.35 178.315,386.972L177.745,384.875C176.893,381.077 174.031,360.719 177.912,350.015C183.09,335.733 191.09,326.671 191.795,325.939L192.671,327.176C187.338,312.506 182.005,297.836 176.672,283.166C220.784,258.253 220.579,258.94 266.922,239.27C268.596,243.895 285.575,290.798 290.727,295.949L292.558,294.779C295.929,292.831 314.502,284.02 325.877,284.527C341.053,285.202 352.091,290.131 353,290.585L360.008,291.781C370.945,280.644 381.882,269.507 392.819,258.37C434.316,287.429 433.609,287.54 471.338,320.874C467.887,324.378 432.889,359.921 430.462,366.79L431.792,374.517C434.508,377.305 447.612,393.145 449.915,404.296C452.987,419.173 450.921,431.084 450.704,432.077" style="fill:none;stroke-width:47.57px;"/>
    </g>
    <g transform="matrix(-0.616577,0.603777,-0.610324,-0.64235,680.815,453.074)">
        <path d="M234.621,421.061C244.731,406.687 266.006,374.231 266.006,374.231C270.704,377.121 331.246,393.129 335.586,396.639L328.232,452.13C310.502,459.802 270.039,471.205 270.039,471.205C243.954,437.667 228.992,429.063 234.621,421.061Z" style="fill:none;stroke-width:48.54px;"/>
    </g>
    <g transform="matrix(-0.821987,0.262773,-0.257055,-0.847958,1097.03,643.542)">
        <path d="M234.621,421.061C244.731,406.687 266.006,374.231 266.006,374.231C270.704,377.121 331.246,393.129 335.586,396.639L328.232,452.13C310.502,459.802 270.039,471.205 270.039,471.205C243.954,437.667 228.992,429.063 234.621,421.061Z" style="fill:none;stroke-width:48.54px;"/>
    </g>
    <g transform="matrix(0.970068,0,0,1.37161,20.251,-201.617)">
        <path d="M447.752,622.279C449.488,548.621 434.282,543.663 440.543,544.127C469.987,546.308 545.213,535.058 550.23,533.804C548.067,587.884 550.662,565.42 556.892,619.414" style="fill:none;stroke-width:35.47px;"/>
    </g>
    <g transform="matrix(1,0,0,1,24.3669,-28.5627)">
        <path d="M52.549,108.357C55.084,154.347 53.604,182.476 53.265,188.911" style="fill:none;stroke-width:42.13px;"/>
    </g>
    <g transform="matrix(1,0,0,1,24.3669,-28.5627)">
        <path d="M52.549,108.357C55.084,154.347 53.604,182.476 53.265,188.911" style="fill:none;stroke-width:42.13px;"/>
    </g>
    <g transform="matrix(-1,0,0,1,961.112,-31.3646)">
        <path d="M52.549,108.357C55.084,154.347 53.604,182.476 53.265,188.911" style="fill:none;stroke-width:42.13px;"/>
    </g>
    <g transform="matrix(1,0,0,1,-3.14573,-30.7647)">
        <path d="M394.132,111.799C395.307,133.331 394.662,132.486 393.879,178.73" style="fill:none;stroke-width:42.13px;"/>
    </g>
    <g transform="matrix(1,0,0,1,-3.14573,-30.7647)">
        <path d="M394.132,111.799C395.307,133.331 394.662,132.486 393.879,178.73" style="fill:none;stroke-width:42.13px;"/>
    </g>
    <g transform="matrix(-1,0,0,1,988.625,-33.5665)">
        <path d="M394.132,111.799C395.307,133.331 394.662,132.486 393.879,178.73" style="fill:none;stroke-width:42.13px;"/>
    </g>
    <g transform="matrix(1,0,0,1,24.3669,-28.5627)">
        <path d="M83.744,147.434C86.312,144.584 86.217,145.777 118.055,113.939C140.587,134.218 136.738,137.375 159.707,156.516C159.86,156.644 195.253,138.113 216.436,111.819C218.604,116.127 232.894,144.517 256.893,156.516C260.684,158.412 282.444,115.047 295.767,108.386C301.511,105.514 317.529,128.289 338.709,149.333" style="fill:none;stroke-width:42.13px;"/>
    </g>
    <g transform="matrix(1,0,0,1,24.3669,-28.5627)">
        <path d="M83.744,147.434C86.312,144.584 86.217,145.777 118.055,113.939C140.587,134.218 136.738,137.375 159.707,156.516C159.86,156.644 195.253,138.113 216.436,111.819C218.604,116.127 232.894,144.517 256.893,156.516C260.684,158.412 282.444,115.047 295.767,108.386C301.511,105.514 317.529,128.289 338.709,149.333" style="fill:none;stroke-width:42.13px;"/>
    </g>
    <g transform="matrix(-1,0,0,1,961.112,-31.3646)">
        <path d="M83.744,147.434C86.312,144.584 86.217,145.777 118.055,113.939C140.587,134.218 136.738,137.375 159.707,156.516C159.86,156.644 195.253,138.113 216.436,111.819C218.604,116.127 232.894,144.517 256.893,156.516C260.684,158.412 282.444,115.047 295.767,108.386C301.511,105.514 317.529,128.289 338.709,149.333" style="fill:none;stroke-width:42.13px;"/>
    </g>
    <g transform="matrix(1,0,0,1,-8.57966,-35.6428)">
        <path d="M896.545,919.938C847.715,978.257 304.004,1003.01 116.091,926.849C79.776,912.131 91.179,819.938 104.2,803.9C143.071,756.021 806.704,754.054 883.862,794.182C910.051,807.803 916.52,896.083 896.545,919.938Z" style="fill:none;stroke-width:42.13px;"/>
    </g>
    <g transform="matrix(1,0,0,1,-8.57966,-35.6428)">
        <path d="M202.918,921.974C196.479,916.303 208.444,805.203 209.532,795.097" style="fill:none;stroke-width:42.13px;"/>
    </g>
    <g transform="matrix(1,0,0,1,-8.57966,-35.6428)">
        <path d="M337.102,949.919C330.192,872.192 324.03,872.583 336.73,796.382" style="fill:none;stroke-width:42.13px;"/>
    </g>
    <g transform="matrix(1,0,0,1,-8.57966,-35.6428)">
        <path d="M487.487,953.01C486.122,939.83 478.556,866.738 485.77,787.388" style="fill:none;stroke-width:42.13px;"/>
    </g>
    <g transform="matrix(1,0,0,1,-8.57966,-35.6428)">
        <path d="M632.752,946.345C631.162,871.642 627.921,872.451 623.247,797.667" style="fill:none;stroke-width:42.13px;"/>
    </g>
    <g transform="matrix(1,0,0,1,-8.57966,-35.6428)">
        <path d="M759.769,943.454C759.39,943.615 757.304,873.564 750.444,791.243" style="fill:none;stroke-width:42.13px;"/>
    </g>
</svg>
