<?xml version="1.0" encoding="UTF-8" standalone="no"?>
<!DOCTYPE svg PUBLIC "-//W3C//DTD SVG 1.1//EN" "http://www.w3.org/Graphics/SVG/1.1/DTD/svg11.dtd">
<svg width="100%" height="100%" viewBox="0 0 4000 3000" version="1.1" xmlns="http://www.w3.org/2000/svg" xmlns:xlink="http://www.w3.org/1999/xlink" xml:space="preserve" xmlns:serif="http://www.serif.com/" style="fill-rule:evenodd;clip-rule:evenodd;stroke-linecap:round;stroke-linejoin:round;stroke-miterlimit:1.5;">
    <path d="M43.071,2748.19C58.79,2678.27 113.657,2616.82 129.008,2566.06C159.735,2464.47 75.266,2404.73 56.232,2375.35C2.077,2291.78 87.088,2213.22 111.038,2143.21C153.945,2017.78 61.292,1935.61 53.011,1853.61C43.977,1764.17 112.322,1717.55 118.198,1654.57C123.815,1594.36 61.71,1528.2 48.896,1470.22C19.905,1339.04 111.525,1303.06 124.123,1205.7C136.719,1108.35 78.786,1046.45 61.814,987.387C52.199,953.926 64.637,899.501 76.031,874.58C82.219,861.044 89.532,848.039 95.683,834.485C119.656,781.66 137.067,734.724 101.885,674.238C92.58,658.24 82.053,642.964 72.952,626.849C30.253,551.25 66.135,505.59 90.871,467.568C93.843,463 201.533,332.04 57.417,224.898L65.915,228.861C7.696,188.316 15.745,86.52 84.16,48.801C159.048,7.513 266.078,66.603 267.512,67.278C327.963,95.727 325.848,103.584 368.773,106.43C428.3,110.377 504.418,66.412 545.77,54.538C641.313,27.103 658.483,91.426 740.172,110.035C845.121,133.942 953.822,28.785 1043.39,38.132C1108.76,44.954 1139.63,99.778 1224.76,107.374C1323.73,116.205 1439.23,43.869 1497.64,38.142C1587.87,29.297 1717.76,83.889 1698.06,78.665C1877.25,138.875 1937.89,72.402 1971.44,55.213C2133.49,-27.79 2334.79,109.459 2352.4,115.267C2472.2,154.781 2566.01,79.987 2572.72,76.113C2689.8,8.541 2747.66,79.928 2897.34,108.185C2944.22,117.036 2988.72,109.792 2996.55,108.516C3130.83,86.657 3155.6,38.179 3270.26,39.159C3378,40.08 3378.4,75.426 3532.8,105.693C3664.71,131.55 3785.96,36.274 3851.34,39.179C3871.4,40.07 3948.3,36.363 3966.53,127.726C3977.26,181.534 3944.53,237.027 3940.66,249.382C3934.73,261.904 3867.64,392.197 3857.43,447.023C3840.3,538.986 3913.16,588.138 3933.98,620.386C3987.99,704.048 3902.85,782.468 3878.78,852.441C3835.67,977.797 3928.18,1060.12 3936.33,1142.13C3945.21,1231.59 3876.79,1278.09 3870.81,1341.07C3865.09,1401.26 3927.09,1467.53 3939.81,1525.53C3968.58,1656.76 3876.9,1692.59 3864.14,1789.93C3851.38,1887.25 3909.21,1949.25 3926.08,2008.34C3935.64,2041.82 3923.11,2096.22 3911.68,2121.12C3905.47,2134.65 3898.13,2147.64 3891.96,2161.19C3867.9,2213.97 3850.41,2260.88 3885.49,2321.42C3894.77,2337.44 3905.27,2352.73 3914.34,2368.86C3956.91,2444.53 3920.96,2490.13 3896.16,2528.11C3893.18,2532.67 3785.27,2663.45 3929.21,2770.84L3935.01,2776.1C3993.22,2816.93 3984.93,2919.09 3916.35,2956.8C3841.26,2998.08 3734.21,2938.52 3732.79,2937.85C3672.31,2909.16 3674.45,2901.28 3631.48,2898.33C3571.88,2894.23 3495.56,2938.19 3454.13,2950.02C3358.4,2977.35 3341.35,2912.74 3259.59,2893.89C3154.56,2869.66 3045.47,2974.97 2955.81,2965.39C2890.37,2958.4 2859.58,2903.3 2774.35,2895.49C2675.27,2886.4 2559.45,2958.76 2500.95,2964.37C2410.59,2973.05 2280.64,2917.97 2300.36,2923.26C2121.06,2862.42 2060.19,2929.01 2026.55,2946.19C1864.11,3029.15 1662.84,2890.94 1645.22,2885.07C1525.35,2845.14 1431.23,2920.01 1424.51,2923.88C1307.13,2991.45 1249.35,2919.66 1099.54,2890.97C1052.61,2881.98 1008.04,2889.16 1000.19,2890.42C865.688,2912.06 840.774,2960.67 725.961,2959.43C618.082,2958.27 617.757,2922.79 463.213,2892.07C356.681,2870.89 238.632,2933.25 205.489,2945.45C198.568,2948 154.093,2964.38 113.74,2954.47C10.664,2929.14 37.784,2755.8 47.213,2732.17L43.071,2748.19Z" style="fill:none;stroke:black;stroke-width:42.08px;"/>
</svg>