<?xml version="1.0" encoding="UTF-8" standalone="no"?>
<!DOCTYPE svg PUBLIC "-//W3C//DTD SVG 1.1//EN" "http://www.w3.org/Graphics/SVG/1.1/DTD/svg11.dtd">
<svg width="100%" height="100%" viewBox="0 0 1000 1000" version="1.1" xmlns="http://www.w3.org/2000/svg" xmlns:xlink="http://www.w3.org/1999/xlink" xml:space="preserve" xmlns:serif="http://www.serif.com/" style="fill-rule:evenodd;clip-rule:evenodd;stroke-linecap:round;stroke-linejoin:round;stroke-miterlimit:1.5;">
    <g transform="matrix(1.2414,0,0,1.28279,-128.745,-157.723)">
        <path d="M217.389,573.745C223.507,586.175 334.413,636.321 497.476,637.255C654.966,638.157 739.342,602.613 798.136,559.627" style="fill:none;stroke-width:33.38px;"/>
    </g>
    <g transform="matrix(1.13123,0,0,0.714743,-72.1254,379.915)">
        <path d="M217.389,573.745C223.507,586.175 335.052,700.682 498.113,701.889C658.917,703.079 744.371,615.881 800.444,536.832" style="fill:none;stroke-width:44.53px;"/>
    </g>
    <g transform="matrix(1.08567,0,0,1.28111,-86.1054,-169.429)">
        <path d="M203.777,589.67C208.888,578.278 194.269,610.859 232.068,743.157" style="fill:none;stroke-width:35.48px;"/>
    </g>
    <g transform="matrix(-1.08567,0,0,1.28111,1089.01,-198.559)">
        <path d="M203.777,589.67C208.888,578.278 194.269,610.859 232.068,743.157" style="fill:none;stroke-width:35.48px;"/>
    </g>
    <g transform="matrix(1,0,0,1,-3.4862,4.33141)">
        <path d="M193.052,826.063C189.872,831.098 171.387,860.367 176.161,898.563C177.201,906.885 205.854,938.633 290.294,849.972" style="fill:none;stroke-width:42.13px;"/>
    </g>
    <g transform="matrix(-1,0,0,1,998.174,6.26435)">
        <path d="M203.126,801.024C199.946,806.059 171.387,860.367 176.161,898.563C177.201,906.885 205.854,938.633 290.294,849.972" style="fill:none;stroke-width:42.13px;"/>
    </g>
    <g transform="matrix(1,0,0,0.752795,-2.30413,178.705)">
        <path d="M229.532,572.689C209.052,381.582 254.652,338.508 325.869,319.246C409.958,296.503 582.359,295.138 688.287,323.745C792.458,351.877 780.894,557.37 761.219,573.11" style="fill:none;stroke-width:47.61px;"/>
    </g>
    <g transform="matrix(1,0,0,1,264.451,-92.4322)">
        <path d="M401.338,243.425C429.882,284.571 473.576,287.57 506.298,250.932C535.917,217.769 524.657,178.428 500.692,162.448C427.895,113.906 371.208,199.995 401.338,243.425Z" style="fill:none;stroke-width:42.13px;"/>
    </g>
    <g transform="matrix(0.73609,0,0,0.774561,173.77,29.8162)">
        <path d="M401.338,243.425C429.882,284.571 473.576,287.57 506.298,250.932C535.917,217.769 524.657,178.428 500.692,162.448C427.895,113.906 371.208,199.995 401.338,243.425Z" style="fill:none;stroke-width:55.77px;"/>
    </g>
    <g transform="matrix(0.541422,0,0,0.547515,395.375,195.072)">
        <path d="M401.338,243.425C429.882,284.571 473.576,287.57 506.298,250.932C535.917,217.769 524.657,178.428 500.692,162.448C427.895,113.906 371.208,199.995 401.338,243.425Z" style="fill:none;stroke-width:77.39px;"/>
    </g>
</svg>
