<?xml version="1.0" encoding="UTF-8" standalone="no"?>
<!DOCTYPE svg PUBLIC "-//W3C//DTD SVG 1.1//EN" "http://www.w3.org/Graphics/SVG/1.1/DTD/svg11.dtd">
<svg width="100%" height="100%" viewBox="0 0 1000 1000" version="1.1" xmlns="http://www.w3.org/2000/svg" xmlns:xlink="http://www.w3.org/1999/xlink" xml:space="preserve" xmlns:serif="http://www.serif.com/" style="fill-rule:evenodd;clip-rule:evenodd;stroke-linecap:round;stroke-linejoin:round;stroke-miterlimit:1.5;">
    <g transform="matrix(1.113,0,0,1,-679.561,-967.475)">
        <path d="M863.667,1326.2C901.955,1314.08 837.761,1380.26 806.782,1330.69C740.754,1225.05 961.124,1193.27 953.183,1341.8C946.674,1463.53 721.243,1515.78 692.612,1261.97C684.178,1187.21 811.081,1242.76 733.263,1122.12C710.481,1086.79 924.723,1006.29 957.57,1191.96" style="fill:none;stroke-width:39.82px;"/>
    </g>
    <g transform="matrix(1.113,0,0,1,-156.437,-955.244)">
        <path d="M863.667,1326.2C901.955,1314.08 837.761,1380.26 806.782,1330.69C740.754,1225.05 961.124,1193.27 953.183,1341.8C946.674,1463.53 721.243,1515.78 692.612,1261.97C684.178,1187.21 811.081,1242.76 733.263,1122.12C710.481,1086.79 924.723,1006.29 957.57,1191.96" style="fill:none;stroke-width:39.82px;"/>
    </g>
    <g transform="matrix(1,0,0,1,-623.801,-962.126)">
        <path d="M1085.69,1869.54C967.718,1879 1015.81,1658.8 1137.2,1679.46C1194.72,1689.26 1212.09,1760.45 1214.34,1769.67C1235.57,1856.72 1093.88,1868.93 1085.69,1869.54Z" style="fill:none;stroke-width:42.13px;"/>
    </g>
    <g transform="matrix(1.30571,0,0,1.09855,-977.963,-1069.5)">
        <path d="M1036.65,1538.93C1036.28,1486.2 1055.15,1439.99 1118.57,1432.94C1161.48,1428.18 1224.96,1472.4 1220.39,1550.04" style="fill:none;stroke-width:34.92px;"/>
    </g>
    <g transform="matrix(1.56481,0,0,1.08107,-1282.37,-1098.23)">
        <path d="M1161.91,1593.13C1158.28,1578.98 1157.93,1579.88 1156.16,1564.54" style="fill:none;stroke-width:31.33px;"/>
    </g>
    <g transform="matrix(-1.58177,0.0255222,0.0201174,1.2468,2252.8,-1390.82)">
        <path d="M1161.91,1593.13C1158.28,1578.98 1157.93,1579.88 1156.16,1564.54" style="fill:none;stroke-width:29.58px;"/>
    </g>
    <g transform="matrix(1,0,0,1,-597.808,-920.643)">
        <path d="M702.57,1549.78C791.348,1619.14 765.34,1636.08 785.04,1747.71" style="fill:none;stroke-width:42.13px;"/>
    </g>
    <g transform="matrix(-0.999755,0.0221564,0.0221564,0.999755,1559.21,-933.525)">
        <path d="M702.57,1549.78C791.348,1619.14 765.34,1636.08 785.04,1747.71" style="fill:none;stroke-width:42.13px;"/>
    </g>
</svg>
