<?xml version="1.0" encoding="UTF-8" standalone="no"?>
<!DOCTYPE svg PUBLIC "-//W3C//DTD SVG 1.1//EN" "http://www.w3.org/Graphics/SVG/1.1/DTD/svg11.dtd">
<svg width="100%" height="100%" viewBox="0 0 1000 1000" version="1.1" xmlns="http://www.w3.org/2000/svg" xmlns:xlink="http://www.w3.org/1999/xlink" xml:space="preserve" xmlns:serif="http://www.serif.com/" style="fill-rule:evenodd;clip-rule:evenodd;stroke-linecap:round;stroke-linejoin:round;stroke-miterlimit:1.5;">
    <g transform="matrix(-0.881271,0.472611,0.472611,0.881271,270.419,27.9788)">
        <path d="M102.246,254.41C183.903,225.556 244.899,223.909 287.072,221.428" style="fill:none;stroke-width:42.13px;"/>
    </g>
    <path d="M175.824,707.326C270.373,684.89 420.749,701.71 427.034,701.841C692.32,707.368 777.377,663.614 783.174,662.648" style="fill:none;stroke-width:42.13px;"/>
    <g transform="matrix(0.881271,0.472611,-0.472611,0.881271,737.043,-35.2881)">
        <path d="M102.246,254.41C183.903,225.556 244.899,223.909 287.072,221.428" style="fill:none;stroke-width:42.13px;"/>
    </g>
    <g transform="matrix(1.18802,-0.0571559,0.0680217,1.41387,-922.577,-1569.87)">
        <path d="M1036.65,1538.93C1036.28,1486.2 1055.15,1439.99 1118.57,1432.94C1161.48,1428.18 1224.96,1472.4 1220.39,1550.04" style="fill:none;stroke-width:32.23px;"/>
    </g>
    <g transform="matrix(-0.729079,0.267924,0.590818,1.60774,468.386,-2335.14)">
        <path d="M1161.91,1593.13C1158.28,1578.98 1157.93,1579.88 1156.16,1564.54" style="fill:none;stroke-width:31.68px;"/>
    </g>
    <g transform="matrix(-0.87952,0.0287359,0.0481855,1.7235,1423.35,-2236.3)">
        <path d="M1161.91,1593.13C1158.28,1578.98 1157.93,1579.88 1156.16,1564.54" style="fill:none;stroke-width:30.72px;"/>
    </g>
    <g transform="matrix(1,0,0,1,10.7521,81.8987)">
        <path d="M101.411,63.904C125.917,50.402 160.288,12.084 223.16,38.281" style="fill:none;stroke-width:42.13px;"/>
    </g>
    <g transform="matrix(-1,0,0,1,990.914,17.8557)">
        <path d="M101.411,63.904C125.917,50.402 160.288,12.084 223.16,38.281" style="fill:none;stroke-width:42.13px;"/>
    </g>
    <g transform="matrix(-0.881271,0.472611,0.472611,0.881271,270.419,27.9788)">
        <path d="M103.644,257.686C174.031,260.62 286.268,330.062 295.205,347.935" style="fill:none;stroke-width:42.13px;"/>
    </g>
    <g transform="matrix(0.881271,0.472611,-0.472611,0.881271,737.043,-35.2881)">
        <path d="M103.644,257.686C174.031,260.62 286.268,330.062 295.205,347.935" style="fill:none;stroke-width:42.13px;"/>
    </g>
    <g transform="matrix(-0.881271,0.472611,0.472611,0.881271,270.419,27.9788)">
        <path d="M298.953,352.707C279.643,304.475 183.597,173.977 158.758,149.138" style="fill:none;stroke-width:42.13px;"/>
    </g>
    <g transform="matrix(0.881271,0.472611,-0.472611,0.881271,737.043,-35.2881)">
        <path d="M298.953,352.707C279.643,304.475 183.597,173.977 158.758,149.138" style="fill:none;stroke-width:42.13px;"/>
    </g>
    <g transform="matrix(-0.881271,0.472611,0.472611,0.881271,270.419,27.9788)">
        <path d="M155.214,149.054C177.677,269.871 186.37,268.029 198.517,389.501" style="fill:none;stroke-width:42.13px;"/>
    </g>
    <g transform="matrix(0.881271,0.472611,-0.472611,0.881271,737.043,-35.2881)">
        <path d="M155.214,149.054C177.677,269.871 186.37,268.029 198.517,389.501" style="fill:none;stroke-width:42.13px;"/>
    </g>
    <g transform="matrix(-0.881271,0.472611,0.472611,0.881271,270.419,27.9788)">
        <path d="M199.555,392.099C202.3,364.318 207.761,292.697 288.71,225.24" style="fill:none;stroke-width:42.13px;"/>
    </g>
    <g transform="matrix(0.881271,0.472611,-0.472611,0.881271,737.043,-35.2881)">
        <path d="M199.555,392.099C202.3,364.318 207.761,292.697 288.71,225.24" style="fill:none;stroke-width:42.13px;"/>
    </g>
    <g transform="matrix(0.993879,0,0,0.984386,1.03936,14.5658)">
        <path d="M170.925,710.175C166.889,711.697 170.394,865.638 238.739,909.731C410.661,1020.65 615.229,698.662 789.571,663.793" style="fill:none;stroke-width:42.6px;"/>
    </g>
    <g transform="matrix(0.943242,-0.0238542,0.0343441,1.35804,1.90303,-261.929)">
        <path d="M261.138,721.775C263.827,733.833 283.142,820.461 251.464,875.898" style="fill:none;stroke-width:36.03px;"/>
    </g>
    <g transform="matrix(1.11547,-0.0038348,0.00489038,1.42251,-31.0388,-324.159)">
        <path d="M373.248,724.594C390.873,735.568 386.735,852.958 366.448,873.244" style="fill:none;stroke-width:32.96px;"/>
    </g>
    <g transform="matrix(0.537934,0.0257747,-0.0569986,1.1896,288.303,-160.997)">
        <path d="M493.546,725.782C503.097,763.565 512.985,763.842 495.585,833.442" style="fill:none;stroke-width:45.59px;"/>
    </g>
</svg>
