<?xml version="1.0" encoding="UTF-8" standalone="no"?>
<!DOCTYPE svg PUBLIC "-//W3C//DTD SVG 1.1//EN" "http://www.w3.org/Graphics/SVG/1.1/DTD/svg11.dtd">
<svg width="100%" height="100%" viewBox="0 0 1000 1000" version="1.1" xmlns="http://www.w3.org/2000/svg" xmlns:xlink="http://www.w3.org/1999/xlink" xml:space="preserve" xmlns:serif="http://www.serif.com/" style="fill-rule:evenodd;clip-rule:evenodd;stroke-linecap:round;stroke-linejoin:round;stroke-miterlimit:1.5;">
    <g transform="matrix(0.905714,0.0167424,-0.0107329,0.598419,-482.962,193.023)">
        <path d="M648.947,481.486C563.058,412.775 617.754,294.841 666.627,257.534C712.038,222.872 800.954,205.419 848.634,279.105C878.985,326.011 909.834,479.392 789.653,508.006C690.086,531.713 652.21,483.932 648.947,481.486Z" style="fill:none;stroke-width:54.87px;"/>
    </g>
    <g transform="matrix(-0.905788,0.0121076,0.00801849,0.625606,1475.27,177.79)">
        <path d="M648.947,481.486C563.058,412.775 617.754,294.841 666.627,257.534C712.038,222.872 800.954,205.419 848.634,279.105C878.985,326.011 909.834,479.392 789.653,508.006C690.086,531.713 652.21,483.932 648.947,481.486Z" style="fill:none;stroke-width:54.11px;"/>
    </g>
    <g transform="matrix(-0.905788,0.0116983,0.00806101,0.607662,1164.88,15.4638)">
        <path d="M648.947,481.486C565.704,402.031 617.754,294.841 666.627,257.534C712.038,222.872 800.954,205.419 848.634,279.105C878.985,326.011 938.233,414.803 830.751,477.231C734.846,532.935 667.032,498.747 648.947,481.486Z" style="fill:none;stroke-width:54.63px;"/>
    </g>
    <g transform="matrix(0.736579,0.00376917,-0.00393803,0.769579,-354.034,90.2028)">
        <path d="M751.052,443.685C711.378,451.646 669.083,418.244 687.255,375.403C705.706,331.902 762.525,338.716 779.179,353.234C809.547,379.709 802.113,433.438 751.052,443.685Z" style="fill:none;stroke-width:55.94px;"/>
    </g>
    <g transform="matrix(-0.736589,0,0,0.769589,1349.03,93.5754)">
        <path d="M751.052,443.685C711.378,451.646 669.083,418.244 687.255,375.403C705.706,331.902 762.525,338.716 779.179,353.234C809.547,379.709 802.113,433.438 751.052,443.685Z" style="fill:none;stroke-width:55.94px;"/>
    </g>
    <g transform="matrix(-0.736589,0,0,0.743573,1036.57,-77.8172)">
        <path d="M751.052,443.685C711.378,451.646 669.083,418.244 687.255,375.403C705.706,331.902 762.525,338.716 779.179,353.234C809.547,379.709 802.113,433.438 751.052,443.685Z" style="fill:none;stroke-width:56.93px;"/>
    </g>
    <g transform="matrix(1,0,0,1,15.903,-26.8397)">
        <path d="M181.35,719.051L181.408,718.993" style="fill:none;stroke-width:42.13px;"/>
    </g>
    <g transform="matrix(1,0,0,1,15.903,-26.8397)">
        <path d="M180.371,716.585C213.481,715.475 366.307,805.053 665.145,732.92C778.522,705.553 777.257,702.28 784.919,702.28" style="fill:none;stroke-width:42.13px;"/>
    </g>
    <g transform="matrix(1,0,0,1,15.903,-26.8397)">
        <path d="M179.355,716.308C166.444,729.219 348.284,911.054 420.593,928.268C484.825,943.558 597.012,959.065 784.684,705.709" style="fill:none;stroke-width:42.13px;"/>
    </g>
    <g transform="matrix(1.12478,0.00431327,-0.00594731,1.55089,-58.7582,-404.424)">
        <path d="M392.37,647.449C395.6,619.823 411.82,598.027 425.915,588.097C471.603,555.906 490.191,610.622 507.809,592.436C536.12,563.214 586.258,582.698 612.058,648.641" style="fill:none;stroke-width:31.1px;"/>
    </g>
    <g transform="matrix(1,0,0,1,-10.0141,-61.5393)">
        <path d="M467.744,640.238L465.249,640.495" style="fill:none;stroke-width:42.13px;"/>
    </g>
    <g transform="matrix(1,0,0,1,25.6887,-67.2657)">
        <path d="M522.844,646.677L520.88,647.707" style="fill:none;stroke-width:42.13px;"/>
    </g>
    <g transform="matrix(0.99582,-0.0913419,0.0913419,0.99582,-112.231,-76.0275)">
        <path d="M174.448,367.863C202.844,362.952 240.345,352.169 326.353,379.996" style="fill:none;stroke-width:42.13px;"/>
    </g>
    <g transform="matrix(0.978839,0.204634,-0.204634,0.978839,184.422,-243.623)">
        <path d="M646.773,393.754C673.641,367.692 761.237,350.034 811.674,358.43" style="fill:none;stroke-width:42.13px;"/>
    </g>
    <g transform="matrix(0.982589,0.185792,-0.179511,0.949373,-154.313,-399.445)">
        <path d="M646.773,393.754C662.16,378.828 697.465,366.659 734.3,360.562C761.785,356.012 790.122,354.842 811.674,358.43" style="fill:none;stroke-width:42.85px;"/>
    </g>
    <g transform="matrix(0.628351,0,0,1.29395,123.637,-237.154)">
        <path d="M340.005,749.181C350.562,831.803 347.718,837.385 354.165,834.806" style="fill:none;stroke-width:41.42px;"/>
    </g>
    <path d="M434.407,754.565C433.086,773.058 450.624,847.674 453.547,894.435" style="fill:none;stroke-width:42.13px;"/>
    <path d="M538.942,746.467C559.342,858.669 555.814,872.527 558.818,863.517" style="fill:none;stroke-width:42.13px;"/>
    <path d="M642.257,730.432C639.074,737.668 662.852,808.924 664.555,813.182" style="fill:none;stroke-width:42.13px;"/>
</svg>
