<?xml version="1.0" encoding="UTF-8" standalone="no"?>
<!DOCTYPE svg PUBLIC "-//W3C//DTD SVG 1.1//EN" "http://www.w3.org/Graphics/SVG/1.1/DTD/svg11.dtd">
<svg width="100%" height="100%" viewBox="0 0 1000 1000" version="1.1" xmlns="http://www.w3.org/2000/svg" xmlns:xlink="http://www.w3.org/1999/xlink" xml:space="preserve" xmlns:serif="http://www.serif.com/" style="fill-rule:evenodd;clip-rule:evenodd;stroke-linecap:round;stroke-linejoin:round;stroke-miterlimit:1.5;">
    <g transform="matrix(-0.606482,-0.00116116,0.000903704,-0.472012,740.799,995.229)">
        <path d="M241.203,841.387C210.199,827.277 139.086,413.878 179.059,174.039" style="fill:none;stroke-width:77.54px;"/>
    </g>
    <g transform="matrix(-0.611581,-0.00117092,0.0015775,-0.823938,716.589,1042.41)">
        <path d="M138.609,155.759C156.112,104.081 263.334,90.158 357.789,89.236C454.919,88.288 591.777,96.607 620.239,172.324" style="fill:none;stroke-width:58.07px;"/>
    </g>
    <g transform="matrix(0.628886,0,0,0.985525,182.423,190.357)">
        <path d="M359.034,395.733C358.99,395.728 306.412,334.285 296.08,289.606C330.523,256.298 314.065,302.046 493.775,299.991C666.675,298.014 661.454,256.562 693.753,288.452C700.45,295.065 694.546,299.855 626.786,385.182" style="fill:none;stroke-width:50.97px;"/>
    </g>
    <g transform="matrix(-0.606482,-0.00116116,0.000903704,-0.472012,715.608,986.387)">
        <path d="M198.763,823.923C236.671,849.15 292.172,856.792 330.127,862.104C353.375,865.357 396.071,865.103 419.665,862.564C469.14,857.242 540.745,845.875 552.034,828.741" style="fill:none;stroke-width:77.54px;"/>
    </g>
    <g transform="matrix(0.606482,0.00116116,0.000903704,-0.472012,235.023,990.349)">
        <path d="M241.203,841.387C210.199,827.277 130.162,425.664 170.135,185.825" style="fill:none;stroke-width:77.54px;"/>
    </g>
    <g transform="matrix(1,0,0,1.024,22.0684,3.76478)">
        <path d="M458.963,440.72C440.57,382.55 444.991,339.488 448.936,319.173C457.469,275.232 485.133,212.144 553.053,186.372" style="fill:none;stroke-width:41.63px;"/>
    </g>
    <g transform="matrix(1,0,0,1.07776,19.7288,-0.340435)">
        <path d="M611.187,191.486C566.419,184.51 561.205,126.681 617.758,121.629C680.164,116.055 687.393,203.362 611.187,191.486Z" style="fill:none;stroke-width:40.53px;"/>
    </g>
    <g transform="matrix(-0.947523,-0.319688,-0.319688,0.947523,958.629,222.209)">
        <path d="M407.879,279.332C405.91,278.937 325.307,222.514 273.97,265.295C310.742,303.905 334,347.442 397.753,312.48" style="fill:none;stroke-width:42.13px;"/>
    </g>
    <g transform="matrix(0.944213,0.329337,-0.329337,0.944213,168.469,-103.696)">
        <path d="M407.879,279.332C405.91,278.937 325.307,222.514 273.97,265.295C310.742,303.905 334,347.442 397.753,312.48" style="fill:none;stroke-width:42.13px;"/>
    </g>
    <g transform="matrix(-0.796413,0.604753,-0.604753,-0.796413,1203.21,-55.0788)">
        <path d="M553.532,109.018C535.457,96.259 533.707,57.798 538.229,47.932C571.806,-25.327 688.958,38.45 626.06,109.21" style="fill:none;stroke-width:42.13px;"/>
    </g>
    <g transform="matrix(0.343531,-0.939141,0.939141,0.343531,283.536,674.3)">
        <path d="M553.532,109.018C535.457,96.259 533.707,57.798 538.229,47.932C571.806,-25.327 688.958,38.45 626.06,109.21" style="fill:none;stroke-width:42.13px;"/>
    </g>
    <g transform="matrix(-0.75751,-0.319571,0.36902,-0.874723,1013.01,488.158)">
        <path d="M553.532,109.018C535.457,96.259 533.707,57.798 538.229,47.932C571.806,-25.327 688.958,38.45 626.06,109.21" style="fill:none;stroke-width:47.45px;"/>
    </g>
    <g transform="matrix(0.999865,-0.0164087,0.0164087,0.999865,50.4726,24.0134)">
        <path d="M553.532,109.018C535.457,96.259 533.707,57.798 538.229,47.932C571.806,-25.327 688.958,38.45 626.06,109.21" style="fill:none;stroke-width:42.13px;"/>
    </g>
    <g transform="matrix(0.336108,0.941823,-0.941823,0.336108,593.89,-434.038)">
        <path d="M553.532,109.018C535.457,96.259 533.707,57.798 538.229,47.932C571.806,-25.327 688.958,38.45 626.06,109.21" style="fill:none;stroke-width:42.13px;"/>
    </g>
</svg>
